<?xml version="1.0" encoding="UTF-8" standalone="no"?>
<svg
   xmlns:dc="http://purl.org/dc/elements/1.1/"
   xmlns:cc="http://creativecommons.org/ns#"
   xmlns:rdf="http://www.w3.org/1999/02/22-rdf-syntax-ns#"
   xmlns:svg="http://www.w3.org/2000/svg"
   xmlns="http://www.w3.org/2000/svg"
   xmlns:xlink="http://www.w3.org/1999/xlink"
   xmlns:sodipodi="http://sodipodi.sourceforge.net/DTD/sodipodi-0.dtd"
   xmlns:inkscape="http://www.inkscape.org/namespaces/inkscape"
   width="210mm"
   height="297mm"
   viewBox="0 0 210 297"
   version="1.1"
   id="svg8"
   inkscape:version="1.0.2 (e86c870879, 2021-01-15, custom)"
   sodipodi:docname="数据冒险2.svg">
  <defs
     id="defs2">
    <marker
       style="overflow:visible"
       id="marker2059"
       refX="0"
       refY="0"
       orient="auto"
       inkscape:stockid="Arrow1Lend"
       inkscape:isstock="true">
      <path
         transform="matrix(-0.8,0,0,-0.8,-10,0)"
         style="fill:#000000;fill-opacity:1;fill-rule:evenodd;stroke:#000000;stroke-width:1pt;stroke-opacity:1"
         d="M 0,0 5,-5 -12.5,0 5,5 Z"
         id="path2057" />
    </marker>
    <marker
       style="overflow:visible"
       id="Arrow1Lend"
       refX="0"
       refY="0"
       orient="auto"
       inkscape:stockid="Arrow1Lend"
       inkscape:isstock="true"
       inkscape:collect="always">
      <path
         transform="matrix(-0.8,0,0,-0.8,-10,0)"
         style="fill:#000000;fill-opacity:1;fill-rule:evenodd;stroke:#000000;stroke-width:1pt;stroke-opacity:1"
         d="M 0,0 5,-5 -12.5,0 5,5 Z"
         id="path1766" />
    </marker>
  </defs>
  <sodipodi:namedview
     id="base"
     pagecolor="#ffffff"
     bordercolor="#666666"
     borderopacity="1.0"
     inkscape:pageopacity="0.0"
     inkscape:pageshadow="2"
     inkscape:zoom="0.175"
     inkscape:cx="-357.97441"
     inkscape:cy="154.7639"
     inkscape:document-units="px"
     inkscape:current-layer="layer1"
     inkscape:document-rotation="0"
     showgrid="false"
     showborder="false"
     inkscape:window-width="940"
     inkscape:window-height="1019"
     inkscape:window-x="966"
     inkscape:window-y="47"
     inkscape:window-maximized="0" />
  <metadata
     id="metadata5">
    <rdf:RDF>
      <cc:Work
         rdf:about="">
        <dc:format>image/svg+xml</dc:format>
        <dc:type
           rdf:resource="http://purl.org/dc/dcmitype/StillImage" />
        <dc:title></dc:title>
      </cc:Work>
    </rdf:RDF>
  </metadata>
  <g
     inkscape:label="Layer 1"
     inkscape:groupmode="layer"
     id="layer1">
    <rect
       style="fill:#ffffff;stroke:#000000;stroke-width:0.79375"
       id="rect853"
       width="64.926132"
       height="60.670509"
       x="-102.80714"
       y="23.518328" />
    <rect
       style="fill:#ffffff;stroke:#000000;stroke-width:0.79375;stroke-miterlimit:4;stroke-dasharray:6.35, 3.175;stroke-dashoffset:0"
       id="rect853-5"
       width="64.926132"
       height="60.670509"
       x="57.709759"
       y="21.754427" />
    <rect
       style="fill:#ffffff;stroke:#000000;stroke-width:0.79375"
       id="rect853-6"
       width="64.926132"
       height="60.670509"
       x="301.4809"
       y="21.702509" />
    <rect
       style="fill:#ffffff;stroke:#000000;stroke-width:0.79375;stroke-linejoin:miter;stroke-miterlimit:4;stroke-dasharray:6.35, 3.175;stroke-dashoffset:0;paint-order:normal"
       id="rect853-2"
       width="64.926132"
       height="60.670509"
       x="461.9978"
       y="23.290018" />
    <path
       style="fill:none;stroke:#000000;stroke-width:1.08426;stroke-linecap:butt;stroke-linejoin:miter;stroke-miterlimit:4;stroke-dasharray:none;stroke-opacity:1"
       d="m 189.40156,7.813728 v 28.91348"
       id="path1083" />
    <path
       style="fill:none;stroke:#000000;stroke-width:1.08426;stroke-linecap:butt;stroke-linejoin:miter;stroke-miterlimit:4;stroke-dasharray:none;stroke-opacity:1"
       d="m 189.40156,36.727208 14.45682,14.456791 -14.45682,14.456784"
       id="path1085" />
    <path
       style="fill:none;stroke:#000000;stroke-width:1.08426;stroke-linecap:butt;stroke-linejoin:miter;stroke-miterlimit:4;stroke-dasharray:none;stroke-opacity:1;paint-order:normal"
       d="M 189.40156,65.640783 V 94.554237 L 232.77203,65.640783 V 36.727208 L 189.40156,7.813728"
       id="path1087" />
    <use
       x="0"
       y="0"
       xlink:href="#path1085"
       id="use1089"
       width="100%"
       height="100%"
       style="fill:none;stroke-linecap:butt;paint-order:normal" />
    <path
       style="fill:none;stroke:#000000;stroke-width:0.79375;stroke-linecap:butt;stroke-linejoin:miter;stroke-miterlimit:4;stroke-dasharray:none;stroke-opacity:1"
       d="M -37.02149,56.231743 56.630968,55.644754"
       id="path1095" />
    <path
       style="fill:none;stroke:#000000;stroke-width:0.789612;stroke-linecap:butt;stroke-linejoin:miter;stroke-miterlimit:4;stroke-dasharray:none;stroke-opacity:1"
       d="m 366.16242,49.238724 96.48641,0.692187"
       id="path1112" />
    <path
       style="fill:none;stroke:#000000;stroke-width:0.81581;stroke-linecap:butt;stroke-linejoin:miter;stroke-miterlimit:4;stroke-dasharray:none;stroke-opacity:1"
       d="m 231.95197,51.517209 69.44982,-0.217394"
       id="path1112-2" />
    <path
       style="fill:none;stroke:#000000;stroke-width:0.821383;stroke-linecap:butt;stroke-linejoin:miter;stroke-miterlimit:4;stroke-dasharray:none;stroke-opacity:1"
       d="m 123.04424,25.807411 66.79733,-0.19262"
       id="path1150" />
    <path
       style="fill:none;stroke:#000000;stroke-width:0.821383;stroke-linecap:butt;stroke-linejoin:miter;stroke-miterlimit:4;stroke-dasharray:none;stroke-opacity:1"
       d="m 121.53738,79.273857 66.79733,-0.19262"
       id="path1150-7" />
    <text
       xml:space="preserve"
       style="font-size:24.6944px;line-height:1.25;font-family:'Times New Roman';-inkscape-font-specification:'Times New Roman, ';stroke-width:0.264583"
       x="201.05142"
       y="61.003986"
       id="text1174-3"><tspan
         sodipodi:role="line"
         id="tspan1172-6"
         x="201.05142"
         y="61.003986"
         style="font-size:24.6944px;stroke-width:0.264583">EX</tspan></text>
    <text
       xml:space="preserve"
       style="font-size:28.2222px;line-height:1.25;font-family:'Times New Roman';-inkscape-font-specification:'Times New Roman, ';stroke-width:0.264583"
       x="300.23254"
       y="61.986721"
       id="text1174-06"><tspan
         sodipodi:role="line"
         id="tspan1172-2"
         x="300.23254"
         y="61.986721"
         style="font-size:28.2222px;stroke-width:0.264583">MEM</tspan></text>
    <path
       style="fill:#cccccc;stroke:#000000;stroke-width:0.801809;stroke-linecap:butt;stroke-linejoin:miter;stroke-miterlimit:4;stroke-dasharray:0, 8.8199;stroke-dashoffset:0;paint-order:normal"
       d="m 462.73563,82.783457 c -0.0183,-0.81611 -0.16764,-1.44466 -0.3651,-1.5368 -0.26725,-0.12472 -0.26725,-0.18709 0,-0.31181 0.19971,-0.0932 0.33409,-0.6756 0.33409,-1.44771 0,-0.77211 -0.13438,-1.35453 -0.33409,-1.44771 -0.26725,-0.12473 -0.26725,-0.18709 0,-0.31181 0.44601,-0.20814 0.44601,-2.6873 0,-2.89543 -0.26725,-0.12472 -0.26725,-0.18708 0,-0.31181 0.44601,-0.20813 0.44601,-2.68729 0,-2.89542 -0.26725,-0.12472 -0.26725,-0.18709 0,-0.31181 0.19971,-0.0932 0.33409,-0.675597 0.33409,-1.447707 0,-0.77212 -0.13438,-1.35453 -0.33409,-1.44772 -0.26725,-0.12472 -0.26725,-0.18708 0,-0.31181 0.1919,-0.0896 0.33409,-0.64887 0.33409,-1.31407 0,-0.66521 -0.14219,-1.224527 -0.33409,-1.314077 -0.26725,-0.12472 -0.26725,-0.18709 0,-0.31181 0.19971,-0.0932 0.33409,-0.6756 0.33409,-1.44771 0,-0.77212 -0.13438,-1.35453 -0.33409,-1.44772 -0.26725,-0.12472 -0.26725,-0.18708 0,-0.31181 0.44601,-0.20813 0.44601,-2.687281 0,-2.895411 -0.26725,-0.124717 -0.26725,-0.187087 0,-0.311807 0.19971,-0.0932 0.33409,-0.675597 0.33409,-1.447701 0,-0.772107 -0.13438,-1.354524 -0.33409,-1.447701 -0.26725,-0.12473 -0.26725,-0.18709 0,-0.31182 0.19971,-0.0932 0.33409,-0.675587 0.33409,-1.447701 0,-0.782957 -0.13158,-1.345194 -0.33409,-1.427351 -0.23825,-0.0967 -0.24955,-0.19888 -0.0394,-0.35636 0.16206,-0.12144 0.37669,-0.852219 0.47691,-1.623959 0.16005,-1.23236 0.12417,-1.40574 -0.29469,-1.42427 -0.28006,-0.0124 -0.33901,-0.0768 -0.14285,-0.1559 0.20262,-0.0817 0.33409,-0.64325 0.33409,-1.42661 0,-0.77212 -0.13438,-1.35453 -0.33409,-1.44771 -0.26725,-0.12473 -0.26725,-0.18709 0,-0.31182 0.44601,-0.20813 0.44601,-2.68729 0,-2.89542 -0.26725,-0.12472 -0.26725,-0.18709 0,-0.31181 0.44048,-0.20555 0.44048,-2.4226 0,-2.62815 -0.26725,-0.12473 -0.26725,-0.18709 0,-0.31182 0.44601,-0.20813 0.44601,-2.68729 0,-2.89542 -0.26725,-0.12472 -0.26725,-0.18709 0,-0.31181 0.19971,-0.0932 0.33409,-0.6756 0.33409,-1.44771 0,-0.77211 -0.13438,-1.35453 -0.33409,-1.44771 -0.26725,-0.12473 -0.26725,-0.18709 0,-0.31182 0.44601,-0.20812 0.44601,-2.68729 0,-2.89542 -0.26725,-0.12472 -0.26725,-0.18708 0,-0.31181 0.19971,-0.0932 0.33409,-0.6756 0.33409,-1.44771 0,-0.77211 -0.13438,-1.35453 -0.33409,-1.44771 -0.26725,-0.12473 -0.26725,-0.18709 0,-0.31182 0.40056,-0.18691 0.46286,-2.784053 0.0668,-2.784053 -0.14701,0 -0.26729,-0.120272 -0.26729,-0.267269 0,-0.147 0.59135,-0.267269 1.31408,-0.267269 0.78994,0 1.37626,-0.133257 1.47,-0.334087 0.12473,-0.267271 0.18709,-0.267271 0.31181,0 0.0932,0.199684 0.67559,0.334087 1.4477,0.334087 0.7721,0 1.35453,-0.134403 1.44772,-0.334087 0.12472,-0.267271 0.18709,-0.267271 0.31181,0 0.20812,0.44599 2.68729,0.44599 2.89541,0 0.12473,-0.267271 0.18709,-0.267271 0.31182,0 0.20555,0.440465 2.4226,0.440465 2.62816,0 0.12472,-0.267271 0.18708,-0.267271 0.31181,0 0.20812,0.44599 2.68729,0.44599 2.89541,0 0.12473,-0.267271 0.18709,-0.267271 0.31181,0 0.20815,0.44599 2.6873,0.44599 2.89544,0 0.12473,-0.267271 0.18709,-0.267271 0.31182,0 0.0932,0.199684 0.67558,0.334087 1.44769,0.334087 0.77211,0 1.35453,-0.134403 1.44772,-0.334087 0.12472,-0.267271 0.18709,-0.267271 0.31181,0 0.20812,0.44599 2.6873,0.44599 2.89542,0 0.12472,-0.267271 0.18708,-0.267271 0.31181,0 0.0932,0.199684 0.67561,0.334087 1.44772,0.334087 0.77211,0 1.35451,-0.134403 1.44769,-0.334087 0.12473,-0.267271 0.18712,-0.267271 0.31184,0 0.20812,0.44599 2.68727,0.44599 2.89542,0 0.12472,-0.267271 0.18708,-0.267271 0.31181,0 0.0857,0.183748 0.31181,0.334087 0.50233,0.334087 0.28099,0 0.3682,5.618471 0.46149,29.733724 0.0632,16.353515 0.0637,29.944162 0,30.201412 -0.13925,0.57133 -0.58621,0.62228 -0.58621,0.0668 0,-0.30291 -0.32665,-0.40091 -1.33633,-0.40091 -1.0097,0 -1.33636,0.098 -1.33636,0.40091 0,0.22049 -0.12028,0.4009 -0.26725,0.4009 -0.14701,0 -0.26729,-0.18041 -0.26729,-0.4009 0,-0.30291 -0.32665,-0.40091 -1.33635,-0.40091 -1.00968,0 -1.33633,0.098 -1.33633,0.40091 0,0.22049 -0.12028,0.4009 -0.26729,0.4009 -0.147,0 -0.26725,-0.18041 -0.26725,-0.4009 0,-0.30291 -0.32668,-0.40091 -1.33636,-0.40091 -1.00968,0 -1.33636,0.098 -1.33636,0.40091 0,0.22049 -0.12025,0.4009 -0.26725,0.4009 -0.14701,0 -0.26728,-0.18041 -0.26728,-0.4009 0,-0.30291 -0.32666,-0.40091 -1.33634,-0.40091 -1.0097,0 -1.33635,0.098 -1.33635,0.40091 0,0.22049 -0.12026,0.4009 -0.26726,0.4009 -0.147,0 -0.26728,-0.18041 -0.26728,-0.4009 0,-0.30291 -0.32666,-0.40091 -1.33633,-0.40091 -1.00971,0 -1.33636,0.098 -1.33636,0.40091 0,0.22049 -0.12028,0.4009 -0.26728,0.4009 -0.14698,0 -0.26726,-0.18041 -0.26726,-0.4009 0,-0.29697 -0.31181,-0.40091 -1.20271,-0.40091 -0.89091,0 -1.20272,0.10394 -1.20272,0.40091 0,0.22049 -0.10739,0.4009 -0.23868,0.4009 -0.13126,0 -0.3079,-0.18041 -0.39251,-0.4009 -0.10549,-0.27475 -0.53501,-0.40091 -1.36499,-0.40091 -0.89836,0 -1.2111,0.10353 -1.2111,0.40091 0,0.22049 -0.12028,0.4009 -0.26728,0.4009 -0.147,0 -0.26726,-0.18041 -0.26726,-0.4009 0,-0.30291 -0.32668,-0.40091 -1.33635,-0.40091 -1.00968,0 -1.33636,0.098 -1.33636,0.40091 0,0.22049 -0.12026,0.4009 -0.26726,0.4009 -0.147,0 -0.26728,-0.18041 -0.26728,-0.4009 0,-0.30291 -0.32665,-0.40091 -1.33633,-0.40091 -1.0097,0 -1.33636,0.098 -1.33636,0.40091 0,0.22049 -0.12028,0.4009 -0.26725,0.4009 -0.14701,0 -0.26729,-0.18041 -0.26729,-0.4009 0,-0.62782 -2.59061,-0.56501 -2.75571,0.0668 -0.0672,0.25725 -0.13618,-0.15368 -0.15325,-0.91317 z"
       id="path1366" />
    <path
       style="fill:#cccccc;stroke:#000000;stroke-width:0.801809;stroke-linecap:butt;stroke-linejoin:miter;stroke-miterlimit:4;stroke-dasharray:0, 8.8199;stroke-dashoffset:0;paint-order:normal"
       d="m 92.663437,82.692207 c 0,-0.147 -0.280884,-0.26727 -0.624189,-0.26727 h -0.62419 L 91.237625,61.377465 c -0.282269,-33.483499 -0.25293,-38.553627 0.223099,-38.553627 0.220497,0 0.400904,-0.180409 0.400904,-0.400905 0,-0.220499 0.120271,-0.400905 0.267269,-0.400905 0.147,0 0.267271,0.180406 0.267271,0.400905 0,0.302906 0.326663,0.400905 1.336347,0.400905 1.009684,0 1.336347,-0.098 1.336347,-0.400905 0,-0.220499 0.120272,-0.400905 0.267269,-0.400905 0.147,0 0.267271,0.180406 0.267271,0.400905 0,0.302906 0.326663,0.400905 1.336347,0.400905 1.009685,0 1.336347,-0.098 1.336347,-0.400905 0,-0.220499 0.120272,-0.400905 0.267272,-0.400905 0.146997,0 0.267268,0.180406 0.267268,0.400905 0,0.296966 0.311815,0.400905 1.202714,0.400905 0.8909,0 1.20271,-0.103939 1.20271,-0.400905 0,-0.220499 0.10741,-0.400905 0.23868,-0.400905 0.13127,0 0.3079,0.180406 0.39251,0.400905 0.10543,0.274743 0.53497,0.400905 1.36494,0.400905 0.89836,0 1.21111,-0.103529 1.21111,-0.400905 0,-0.220499 0.12027,-0.400905 0.26726,-0.400905 0.147,0 0.26728,0.180406 0.26728,0.400905 0,0.302906 0.32666,0.400905 1.33634,0.400905 1.00969,0 1.33635,-0.098 1.33635,-0.400905 0,-0.220499 0.12027,-0.400905 0.26727,-0.400905 0.147,0 0.26727,0.180406 0.26727,0.400905 0,0.302906 0.32666,0.400905 1.33635,0.400905 1.00968,0 1.33634,-0.098 1.33634,-0.400905 0,-0.220499 0.12028,-0.400905 0.26727,-0.400905 0.147,0 0.26727,0.180406 0.26727,0.400905 0,0.302906 0.32667,0.400905 1.33635,0.400905 1.00968,0 1.33635,-0.098 1.33635,-0.400905 0,-0.220499 0.12027,-0.400905 0.26727,-0.400905 0.147,0 0.26727,0.180406 0.26727,0.400905 0,0.302906 0.32666,0.400905 1.33634,0.400905 1.00969,0 1.33635,-0.098 1.33635,-0.400905 0,-0.220499 0.12027,-0.400905 0.26727,-0.400905 0.147,0 0.26727,0.180406 0.26727,0.400905 0,0.302906 0.32666,0.400905 1.33635,0.400905 1.00969,0 1.33635,-0.098 1.33635,-0.400905 0,-0.220499 0.12027,-0.400905 0.26727,-0.400905 0.14699,0 0.26727,0.180406 0.26727,0.400905 0,0.220496 0.18899,0.400905 0.41999,0.400905 0.58544,0 1.42231,0.855879 0.98078,1.003053 -0.44619,0.148733 -0.4441,2.641717 0.002,2.850082 0.26727,0.124724 0.26727,0.187089 0,0.311814 -0.1997,0.09319 -0.3341,0.675597 -0.3341,1.44771 0,0.772112 0.1344,1.354523 0.33409,1.44771 0.26726,0.124724 0.26726,0.187089 0,0.311814 -0.44599,0.208129 -0.44599,2.687291 0,2.89542 0.26726,0.124724 0.26726,0.187089 0,0.311814 -0.44047,0.205552 -0.44047,2.422599 0,2.628151 0.26726,0.124725 0.26726,0.187087 0,0.311814 -0.44599,0.208129 -0.44599,2.687291 0,2.89542 0.26726,0.124725 0.26726,0.18709 0,0.311814 -0.19969,0.09319 -0.33409,0.675598 -0.33409,1.44771 0,0.772113 0.1344,1.354524 0.33409,1.44771 0.26726,0.124725 0.26726,0.18709 0,0.311814 -0.44599,0.20813 -0.44599,2.687291 0,2.895421 0.26726,0.124724 0.26726,0.187089 0,0.311814 -0.19969,0.09319 -0.33409,0.675597 -0.33409,1.44771 0,0.772112 0.1344,1.354523 0.33409,1.44771 0.26726,0.124724 0.26726,0.187089 0,0.311814 -0.44599,0.208129 -0.44599,2.687291 0,2.89542 0.26726,0.124724 0.26726,0.187089 0,0.311814 -0.19969,0.09319 -0.33409,0.675598 -0.33409,1.44771 0,0.772112 0.1344,1.354524 0.33409,1.44771 0.26726,0.124725 0.26726,0.18709 0,0.311814 -0.44599,0.208132 -0.44599,2.687291 0,2.895423 0.26726,0.124722 0.26726,0.187087 0,0.311811 -0.44047,0.205552 -0.44047,2.422599 0,2.628151 0.26726,0.124725 0.26726,0.18709 0,0.311815 -0.19969,0.09319 -0.33409,0.675597 -0.33409,1.44771 0,0.772112 0.1344,1.354523 0.33409,1.44771 0.26726,0.124724 0.26726,0.187089 0,0.311814 -0.19969,0.09319 -0.33409,0.675597 -0.33409,1.44771 0,0.772112 0.1344,1.354523 0.33409,1.44771 0.26726,0.124724 0.26726,0.187089 0,0.311814 -0.19969,0.09319 -0.33409,0.675597 -0.33409,1.44771 0,0.772112 0.1344,1.354524 0.33409,1.44771 0.26726,0.124724 0.26726,0.187094 0,0.311814 -0.44599,0.20813 -0.44599,2.68729 0,2.89542 0.26726,0.12472 0.26726,0.18709 0,0.31181 -0.19969,0.0932 -0.33409,0.6756 -0.33409,1.44771 0,0.77212 0.1344,1.35453 0.33409,1.44772 0.26726,0.12472 0.26726,0.18708 0,0.31181 -0.18375,0.0858 -0.33409,0.44656 -0.33409,0.80181 0,0.39595 -0.15514,0.6459 -0.40091,0.6459 -0.68924,0 -0.46356,0.9954 0.26727,1.17883 0.6429,0.16136 0.95033,0.69206 0.40091,0.69206 -0.147,0 -0.26911,0.27061 -0.27136,0.60135 -0.005,0.77687 -0.51339,1.54551 -0.7067,1.06908 -0.0822,-0.20249 -0.6444,-0.33409 -1.42737,-0.33409 -0.77211,0 -1.35452,0.13441 -1.44771,0.33409 -0.12472,0.26727 -0.18709,0.26727 -0.31181,0 -0.0932,-0.19968 -0.6756,-0.33409 -1.44771,-0.33409 -0.77211,0 -1.35452,0.13441 -1.44771,0.33409 -0.12473,0.26727 -0.18709,0.26727 -0.31181,0 -0.0932,-0.19968 -0.6756,-0.33409 -1.44772,-0.33409 -0.77211,0 -1.35452,0.13441 -1.44771,0.33409 -0.12472,0.26727 -0.18708,0.26727 -0.31181,0 -0.0932,-0.19968 -0.6756,-0.33409 -1.44771,-0.33409 -0.77211,0 -1.35452,0.13441 -1.44771,0.33409 -0.12473,0.26727 -0.18709,0.26727 -0.31181,0 -0.0932,-0.19968 -0.6756,-0.33409 -1.44771,-0.33409 -0.77212,0 -1.35453,0.13441 -1.44771,0.33409 -0.12473,0.26727 -0.18709,0.26727 -0.31182,0 -0.0896,-0.19188 -0.64887,-0.33409 -1.31407,-0.33409 -0.66521,0 -1.22453,0.14221 -1.31408,0.33409 -0.12472,0.26727 -0.18709,0.26727 -0.31181,0 -0.0932,-0.19968 -0.6756,-0.33409 -1.44771,-0.33409 -0.77211,0 -1.354526,0.13441 -1.447712,0.33409 -0.124727,0.26727 -0.18709,0.26727 -0.311814,0 -0.09319,-0.19968 -0.675598,-0.33409 -1.44771,-0.33409 -0.772113,0 -1.354524,0.13441 -1.44771,0.33409 -0.124728,0.26727 -0.18709,0.26727 -0.311815,0 -0.186914,-0.40053 -2.784059,-0.46286 -2.784059,-0.0668 0,0.147 -0.120269,0.26727 -0.267269,0.26727 -0.146997,0 -0.267269,-0.12027 -0.267269,-0.26727 z"
       id="path1372" />
    <text
       xml:space="preserve"
       style="font-size:28.2222px;line-height:1.25;font-family:'Times New Roman';-inkscape-font-specification:'Times New Roman, ';stroke-width:0.264583"
       x="82.545639"
       y="59.242985"
       id="text1376"><tspan
         sodipodi:role="line"
         id="tspan1374"
         x="82.545639"
         y="59.242985"
         style="font-size:28.2222px;stroke-width:0.264583">ID</tspan></text>
    <text
       xml:space="preserve"
       style="font-size:28.2222px;line-height:1.25;font-family:'Times New Roman';-inkscape-font-specification:'Times New Roman, ';stroke-width:0.264583"
       x="469.82486"
       y="62.552929"
       id="text1380"><tspan
         sodipodi:role="line"
         id="tspan1378"
         x="469.82486"
         y="62.552929"
         style="font-size:28.2222px;stroke-width:0.264583">WB</tspan></text>
    <path
       style="fill:#cccccc;stroke:#000000;stroke-width:1.134;stroke-linecap:butt;stroke-linejoin:miter;stroke-miterlimit:4;stroke-dasharray:0, 12.474;stroke-dashoffset:0;paint-order:normal"
       d="M -68.94305,62.523238 C -69.08103,50.951354 -69.19392,37.51436 -69.19392,32.663246 v -8.820208 h 15.30805 15.30805 V 53.703079 83.563087 H -53.635 -68.69219 Z"
       id="path1423" />
    <text
       xml:space="preserve"
       style="font-size:28.2222px;line-height:1.25;font-family:'Times New Roman';-inkscape-font-specification:'Times New Roman, ';stroke-width:0.264583"
       x="-77.938759"
       y="59.877399"
       id="text1427"><tspan
         sodipodi:role="line"
         id="tspan1425"
         x="-77.938759"
         y="59.877399"
         style="font-size:28.2222px;stroke-width:0.264583">IF</tspan></text>
    <path
       style="fill:none;stroke:#000000;stroke-width:0.79375;stroke-linecap:butt;stroke-linejoin:miter;stroke-miterlimit:4;stroke-dasharray:none;stroke-opacity:1"
       d="M 57.49378,45.310899 H 46.910447 v 10.583335"
       id="path1429" />
    <rect
       style="fill:#ffffff;stroke:#000000;stroke-width:0.79375"
       id="rect853-8"
       width="64.926132"
       height="60.670509"
       x="59.110275"
       y="327.63828" />
    <rect
       style="fill:#ffffff;stroke:#000000;stroke-width:0.79375;stroke-miterlimit:4;stroke-dasharray:6.35, 3.175;stroke-dashoffset:0"
       id="rect853-5-7"
       width="64.926132"
       height="60.670509"
       x="219.62717"
       y="325.87439" />
    <rect
       style="fill:#ffffff;stroke:#000000;stroke-width:0.79375"
       id="rect853-6-1"
       width="64.926132"
       height="60.670509"
       x="463.39828"
       y="325.82248" />
    <rect
       style="fill:#ffffff;stroke:#000000;stroke-width:0.79375;stroke-linejoin:miter;stroke-miterlimit:4;stroke-dasharray:6.35, 3.175;stroke-dashoffset:0;paint-order:normal"
       id="rect853-2-7"
       width="64.926132"
       height="60.670509"
       x="623.91541"
       y="327.40997" />
    <path
       style="fill:none;stroke:#000000;stroke-width:1.08426;stroke-linecap:butt;stroke-linejoin:miter;stroke-miterlimit:4;stroke-dasharray:none;stroke-opacity:1"
       d="m 351.31902,311.93431 v 28.91348"
       id="path1083-2" />
    <path
       style="fill:none;stroke:#000000;stroke-width:1.08426;stroke-linecap:butt;stroke-linejoin:miter;stroke-miterlimit:4;stroke-dasharray:none;stroke-opacity:1"
       d="m 351.31902,340.84779 14.45682,14.45679 -14.45682,14.45679"
       id="path1085-7" />
    <path
       style="fill:none;stroke:#000000;stroke-width:1.08426;stroke-linecap:butt;stroke-linejoin:miter;stroke-miterlimit:4;stroke-dasharray:none;stroke-opacity:1;paint-order:normal"
       d="m 351.31902,369.76137 v 28.91345 l 43.37047,-28.91345 v -28.91358 l -43.37047,-28.91348"
       id="path1087-2" />
    <use
       x="0"
       y="0"
       xlink:href="#path1085-7"
       id="use1089-2"
       width="100%"
       height="100%"
       style="fill:none;stroke-linecap:butt;paint-order:normal" />
    <path
       style="fill:none;stroke:#000000;stroke-width:0.79375;stroke-linecap:butt;stroke-linejoin:miter;stroke-miterlimit:4;stroke-dasharray:none;stroke-opacity:1"
       d="m 124.89593,360.35233 93.6525,-0.58699"
       id="path1095-6" />
    <path
       style="fill:none;stroke:#000000;stroke-width:0.789612;stroke-linecap:butt;stroke-linejoin:miter;stroke-miterlimit:4;stroke-dasharray:none;stroke-opacity:1"
       d="m 528.07988,353.35931 96.48641,0.69218"
       id="path1112-1" />
    <path
       style="fill:none;stroke:#000000;stroke-width:0.81581;stroke-linecap:butt;stroke-linejoin:miter;stroke-miterlimit:4;stroke-dasharray:none;stroke-opacity:1"
       d="m 393.86943,355.63779 69.44982,-0.21739"
       id="path1112-2-0" />
    <path
       style="fill:none;stroke:#000000;stroke-width:0.821383;stroke-linecap:butt;stroke-linejoin:miter;stroke-miterlimit:4;stroke-dasharray:none;stroke-opacity:1"
       d="m 284.9617,329.92799 66.79733,-0.19262"
       id="path1150-6" />
    <path
       style="fill:none;stroke:#000000;stroke-width:0.821383;stroke-linecap:butt;stroke-linejoin:miter;stroke-miterlimit:4;stroke-dasharray:none;stroke-opacity:1"
       d="m 283.45484,383.39444 66.79733,-0.19262"
       id="path1150-7-1" />
    <text
       xml:space="preserve"
       style="font-size:24.6944px;line-height:1.25;font-family:'Times New Roman';-inkscape-font-specification:'Times New Roman, ';stroke-width:0.264583"
       x="362.96881"
       y="365.12384"
       id="text1174-3-5"><tspan
         sodipodi:role="line"
         id="tspan1172-6-9"
         x="362.96881"
         y="365.12384"
         style="font-size:24.6944px;stroke-width:0.264583">EX</tspan></text>
    <text
       xml:space="preserve"
       style="font-size:28.2222px;line-height:1.25;font-family:'Times New Roman';-inkscape-font-specification:'Times New Roman, ';stroke-width:0.264583"
       x="462.14993"
       y="366.10657"
       id="text1174-06-4"><tspan
         sodipodi:role="line"
         id="tspan1172-2-9"
         x="462.14993"
         y="366.10657"
         style="font-size:28.2222px;stroke-width:0.264583">MEM</tspan></text>
    <path
       style="fill:#cccccc;stroke:#000000;stroke-width:0.801809;stroke-linecap:butt;stroke-linejoin:miter;stroke-miterlimit:4;stroke-dasharray:0, 8.8199;stroke-dashoffset:0;paint-order:normal"
       d="m 624.65309,386.90404 c -0.0183,-0.81611 -0.16764,-1.44466 -0.3651,-1.5368 -0.26725,-0.12472 -0.26725,-0.18709 0,-0.31181 0.19971,-0.0932 0.33409,-0.6756 0.33409,-1.44771 0,-0.77211 -0.13438,-1.35453 -0.33409,-1.44771 -0.26725,-0.12473 -0.26725,-0.18709 0,-0.31181 0.44601,-0.20814 0.44601,-2.6873 0,-2.89543 -0.26725,-0.12472 -0.26725,-0.18708 0,-0.31181 0.44601,-0.20813 0.44601,-2.68729 0,-2.89542 -0.26725,-0.12472 -0.26725,-0.18709 0,-0.31181 0.19971,-0.0932 0.33409,-0.6756 0.33409,-1.44771 0,-0.77212 -0.13438,-1.35453 -0.33409,-1.44772 -0.26725,-0.12472 -0.26725,-0.18708 0,-0.31181 0.1919,-0.0896 0.33409,-0.64887 0.33409,-1.31407 0,-0.66521 -0.14219,-1.22452 -0.33409,-1.31407 -0.26725,-0.12472 -0.26725,-0.18709 0,-0.31181 0.19971,-0.0932 0.33409,-0.6756 0.33409,-1.44771 0,-0.77212 -0.13438,-1.35453 -0.33409,-1.44772 -0.26725,-0.12472 -0.26725,-0.18708 0,-0.31181 0.44601,-0.20813 0.44601,-2.68728 0,-2.89541 -0.26725,-0.12472 -0.26725,-0.18709 0,-0.31181 0.19971,-0.0932 0.33409,-0.6756 0.33409,-1.4477 0,-0.77211 -0.13438,-1.35453 -0.33409,-1.4477 -0.26725,-0.12473 -0.26725,-0.18709 0,-0.31182 0.19971,-0.0932 0.33409,-0.67559 0.33409,-1.4477 0,-0.78296 -0.13158,-1.3452 -0.33409,-1.42736 -0.23825,-0.0967 -0.24955,-0.19888 -0.0394,-0.35636 0.16206,-0.12144 0.37669,-0.85221 0.47691,-1.62395 0.16005,-1.23236 0.12417,-1.40574 -0.29469,-1.42427 -0.28006,-0.0124 -0.33901,-0.0768 -0.14285,-0.1559 0.20262,-0.0817 0.33409,-0.64325 0.33409,-1.42661 0,-0.77212 -0.13438,-1.35453 -0.33409,-1.44771 -0.26725,-0.12473 -0.26725,-0.18709 0,-0.31182 0.44601,-0.20813 0.44601,-2.68729 0,-2.89542 -0.26725,-0.12472 -0.26725,-0.18709 0,-0.31181 0.44048,-0.20555 0.44048,-2.4226 0,-2.62815 -0.26725,-0.12473 -0.26725,-0.18709 0,-0.31182 0.44601,-0.20813 0.44601,-2.68729 0,-2.89542 -0.26725,-0.12472 -0.26725,-0.18709 0,-0.31181 0.19971,-0.0932 0.33409,-0.6756 0.33409,-1.44771 0,-0.77211 -0.13438,-1.35453 -0.33409,-1.44771 -0.26725,-0.12473 -0.26725,-0.18709 0,-0.31182 0.44601,-0.20812 0.44601,-2.68729 0,-2.89542 -0.26725,-0.12472 -0.26725,-0.18708 0,-0.31181 0.19971,-0.0932 0.33409,-0.6756 0.33409,-1.44771 0,-0.77211 -0.13438,-1.35453 -0.33409,-1.44771 -0.26725,-0.12473 -0.26725,-0.18709 0,-0.31182 0.40056,-0.18691 0.46286,-2.78406 0.0668,-2.78406 -0.14701,0 -0.26729,-0.12027 -0.26729,-0.26727 0,-0.147 0.59135,-0.26727 1.31408,-0.26727 0.78994,0 1.37626,-0.13325 1.47,-0.33408 0.12473,-0.26727 0.18709,-0.26727 0.31181,0 0.0932,0.19968 0.67559,0.33408 1.4477,0.33408 0.7721,0 1.35453,-0.1344 1.44772,-0.33408 0.12472,-0.26727 0.18709,-0.26727 0.31181,0 0.20812,0.44599 2.68729,0.44599 2.89541,0 0.12473,-0.26727 0.18709,-0.26727 0.31182,0 0.20555,0.44046 2.4226,0.44046 2.62816,0 0.12472,-0.26727 0.18708,-0.26727 0.31181,0 0.20812,0.44599 2.68729,0.44599 2.89541,0 0.12473,-0.26727 0.18709,-0.26727 0.31181,0 0.20815,0.44599 2.6873,0.44599 2.89544,0 0.12473,-0.26727 0.18709,-0.26727 0.31182,0 0.0932,0.19968 0.67558,0.33408 1.44769,0.33408 0.77211,0 1.35453,-0.1344 1.44772,-0.33408 0.12472,-0.26727 0.18709,-0.26727 0.31181,0 0.20812,0.44599 2.6873,0.44599 2.89542,0 0.12472,-0.26727 0.18708,-0.26727 0.31181,0 0.0932,0.19968 0.67561,0.33408 1.44772,0.33408 0.77211,0 1.35451,-0.1344 1.44769,-0.33408 0.12473,-0.26727 0.18712,-0.26727 0.31184,0 0.20812,0.44599 2.68727,0.44599 2.89542,0 0.12472,-0.26727 0.18708,-0.26727 0.31181,0 0.0857,0.18375 0.31181,0.33408 0.50233,0.33408 0.28099,0 0.3682,5.61848 0.46149,29.73373 0.0632,16.35351 0.0637,29.94416 0,30.20141 -0.13925,0.57133 -0.58621,0.62228 -0.58621,0.0668 0,-0.30291 -0.32665,-0.40091 -1.33633,-0.40091 -1.0097,0 -1.33636,0.098 -1.33636,0.40091 0,0.22049 -0.12028,0.4009 -0.26725,0.4009 -0.14701,0 -0.26729,-0.18041 -0.26729,-0.4009 0,-0.30291 -0.32665,-0.40091 -1.33635,-0.40091 -1.00968,0 -1.33633,0.098 -1.33633,0.40091 0,0.22049 -0.12028,0.4009 -0.26729,0.4009 -0.147,0 -0.26725,-0.18041 -0.26725,-0.4009 0,-0.30291 -0.32668,-0.40091 -1.33636,-0.40091 -1.00968,0 -1.33636,0.098 -1.33636,0.40091 0,0.22049 -0.12025,0.4009 -0.26725,0.4009 -0.14701,0 -0.26728,-0.18041 -0.26728,-0.4009 0,-0.30291 -0.32666,-0.40091 -1.33634,-0.40091 -1.0097,0 -1.33635,0.098 -1.33635,0.40091 0,0.22049 -0.12026,0.4009 -0.26726,0.4009 -0.147,0 -0.26728,-0.18041 -0.26728,-0.4009 0,-0.30291 -0.32666,-0.40091 -1.33633,-0.40091 -1.00971,0 -1.33636,0.098 -1.33636,0.40091 0,0.22049 -0.12028,0.4009 -0.26728,0.4009 -0.14698,0 -0.26726,-0.18041 -0.26726,-0.4009 0,-0.29697 -0.31181,-0.40091 -1.20271,-0.40091 -0.89091,0 -1.20272,0.10394 -1.20272,0.40091 0,0.22049 -0.10739,0.4009 -0.23868,0.4009 -0.13126,0 -0.3079,-0.18041 -0.39251,-0.4009 -0.10549,-0.27475 -0.53501,-0.40091 -1.36499,-0.40091 -0.89836,0 -1.2111,0.10353 -1.2111,0.40091 0,0.22049 -0.12028,0.4009 -0.26728,0.4009 -0.147,0 -0.26726,-0.18041 -0.26726,-0.4009 0,-0.30291 -0.32668,-0.40091 -1.33635,-0.40091 -1.00968,0 -1.33636,0.098 -1.33636,0.40091 0,0.22049 -0.12026,0.4009 -0.26726,0.4009 -0.147,0 -0.26728,-0.18041 -0.26728,-0.4009 0,-0.30291 -0.32665,-0.40091 -1.33633,-0.40091 -1.0097,0 -1.33636,0.098 -1.33636,0.40091 0,0.22049 -0.12028,0.4009 -0.26725,0.4009 -0.14701,0 -0.26729,-0.18041 -0.26729,-0.4009 0,-0.62782 -2.59061,-0.56501 -2.75571,0.0668 -0.0672,0.25725 -0.13618,-0.15368 -0.15325,-0.91317 z"
       id="path1366-0" />
    <path
       style="fill:#cccccc;stroke:#000000;stroke-width:0.801809;stroke-linecap:butt;stroke-linejoin:miter;stroke-miterlimit:4;stroke-dasharray:0, 8.8199;stroke-dashoffset:0;paint-order:normal"
       d="m 254.5809,386.81279 c 0,-0.147 -0.28089,-0.26727 -0.62419,-0.26727 h -0.62419 l -0.17744,-21.04747 c -0.28226,-33.4835 -0.25292,-38.55363 0.2231,-38.55363 0.2205,0 0.40091,-0.18041 0.40091,-0.4009 0,-0.2205 0.12027,-0.40091 0.26727,-0.40091 0.147,0 0.26727,0.18041 0.26727,0.40091 0,0.3029 0.32666,0.4009 1.33634,0.4009 1.00969,0 1.33635,-0.098 1.33635,-0.4009 0,-0.2205 0.12027,-0.40091 0.26727,-0.40091 0.147,0 0.26727,0.18041 0.26727,0.40091 0,0.3029 0.32666,0.4009 1.33635,0.4009 1.00968,0 1.33635,-0.098 1.33635,-0.4009 0,-0.2205 0.12027,-0.40091 0.26727,-0.40091 0.14699,0 0.26727,0.18041 0.26727,0.40091 0,0.29696 0.31181,0.4009 1.20271,0.4009 0.8909,0 1.20271,-0.10394 1.20271,-0.4009 0,-0.2205 0.10741,-0.40091 0.23868,-0.40091 0.13127,0 0.3079,0.18041 0.39251,0.40091 0.10543,0.27474 0.53496,0.4009 1.36494,0.4009 0.89836,0 1.21111,-0.10353 1.21111,-0.4009 0,-0.2205 0.12027,-0.40091 0.26726,-0.40091 0.147,0 0.26728,0.18041 0.26728,0.40091 0,0.3029 0.32666,0.4009 1.33634,0.4009 1.00969,0 1.33635,-0.098 1.33635,-0.4009 0,-0.2205 0.12027,-0.40091 0.26727,-0.40091 0.147,0 0.26727,0.18041 0.26727,0.40091 0,0.3029 0.32666,0.4009 1.33635,0.4009 1.00968,0 1.33634,-0.098 1.33634,-0.4009 0,-0.2205 0.12028,-0.40091 0.26727,-0.40091 0.147,0 0.26727,0.18041 0.26727,0.40091 0,0.3029 0.32667,0.4009 1.33635,0.4009 1.00968,0 1.33635,-0.098 1.33635,-0.4009 0,-0.2205 0.12027,-0.40091 0.26727,-0.40091 0.147,0 0.26727,0.18041 0.26727,0.40091 0,0.3029 0.32666,0.4009 1.33634,0.4009 1.00969,0 1.33635,-0.098 1.33635,-0.4009 0,-0.2205 0.12027,-0.40091 0.26727,-0.40091 0.147,0 0.26727,0.18041 0.26727,0.40091 0,0.3029 0.32666,0.4009 1.33635,0.4009 1.00969,0 1.33635,-0.098 1.33635,-0.4009 0,-0.2205 0.12027,-0.40091 0.26727,-0.40091 0.14699,0 0.26727,0.18041 0.26727,0.40091 0,0.22049 0.18899,0.4009 0.41999,0.4009 0.58544,0 1.42231,0.85588 0.98078,1.00305 -0.44619,0.14874 -0.4441,2.64172 0.002,2.85009 0.26727,0.12472 0.26727,0.18708 0,0.31181 -0.1997,0.0932 -0.3341,0.6756 -0.3341,1.44771 0,0.77211 0.1344,1.35452 0.33409,1.44771 0.26726,0.12472 0.26726,0.18709 0,0.31181 -0.44599,0.20813 -0.44599,2.68729 0,2.89542 0.26726,0.12473 0.26726,0.18709 0,0.31182 -0.44047,0.20555 -0.44047,2.4226 0,2.62815 0.26726,0.12472 0.26726,0.18709 0,0.31181 -0.44599,0.20813 -0.44599,2.68729 0,2.89542 0.26726,0.12473 0.26726,0.18709 0,0.31182 -0.19969,0.0932 -0.33409,0.67559 -0.33409,1.44771 0,0.77211 0.1344,1.35452 0.33409,1.44771 0.26726,0.12472 0.26726,0.18709 0,0.31181 -0.44599,0.20813 -0.44599,2.68729 0,2.89542 0.26726,0.12473 0.26726,0.18709 0,0.31182 -0.19969,0.0932 -0.33409,0.67559 -0.33409,1.44771 0,0.77211 0.1344,1.35452 0.33409,1.44771 0.26726,0.12472 0.26726,0.18708 0,0.31181 -0.44599,0.20813 -0.44599,2.68729 0,2.89542 0.26726,0.12472 0.26726,0.18709 0,0.31181 -0.19969,0.0932 -0.33409,0.6756 -0.33409,1.44771 0,0.77212 0.1344,1.35453 0.33409,1.44771 0.26726,0.12473 0.26726,0.18709 0,0.31182 -0.44599,0.20813 -0.44599,2.68729 0,2.89542 0.26726,0.12472 0.26726,0.18709 0,0.31181 -0.44047,0.20555 -0.44047,2.4226 0,2.62815 0.26726,0.12473 0.26726,0.18709 0,0.31182 -0.19969,0.0932 -0.33409,0.67559 -0.33409,1.44771 0,0.77211 0.1344,1.35452 0.33409,1.44771 0.26726,0.12472 0.26726,0.18709 0,0.31181 -0.19969,0.0932 -0.33409,0.6756 -0.33409,1.44771 0,0.77211 0.1344,1.35453 0.33409,1.44771 0.26726,0.12473 0.26726,0.18709 0,0.31182 -0.19969,0.0932 -0.33409,0.67559 -0.33409,1.44771 0,0.77211 0.1344,1.35452 0.33409,1.44771 0.26726,0.12472 0.26726,0.18709 0,0.31181 -0.44599,0.20813 -0.44599,2.68729 0,2.89542 0.26726,0.12472 0.26726,0.18709 0,0.31181 -0.19969,0.0932 -0.33409,0.6756 -0.33409,1.44771 0,0.77212 0.1344,1.35453 0.33409,1.44772 0.26726,0.12472 0.26726,0.18708 0,0.31181 -0.18375,0.0858 -0.33409,0.44656 -0.33409,0.80181 0,0.39595 -0.15514,0.6459 -0.40091,0.6459 -0.68924,0 -0.46356,0.9954 0.26727,1.17883 0.6429,0.16136 0.95033,0.69206 0.40091,0.69206 -0.147,0 -0.26911,0.27061 -0.27136,0.60135 -0.005,0.77687 -0.51339,1.54551 -0.7067,1.06908 -0.0822,-0.20249 -0.6444,-0.33409 -1.42737,-0.33409 -0.77211,0 -1.35452,0.13441 -1.44771,0.33409 -0.12472,0.26727 -0.18709,0.26727 -0.31181,0 -0.0932,-0.19968 -0.6756,-0.33409 -1.44771,-0.33409 -0.77211,0 -1.35452,0.13441 -1.44771,0.33409 -0.12473,0.26727 -0.18709,0.26727 -0.31181,0 -0.0932,-0.19968 -0.6756,-0.33409 -1.44772,-0.33409 -0.77211,0 -1.35452,0.13441 -1.44771,0.33409 -0.12472,0.26727 -0.18708,0.26727 -0.31181,0 -0.0932,-0.19968 -0.6756,-0.33409 -1.44771,-0.33409 -0.77211,0 -1.35452,0.13441 -1.44771,0.33409 -0.12473,0.26727 -0.18709,0.26727 -0.31181,0 -0.0932,-0.19968 -0.6756,-0.33409 -1.44771,-0.33409 -0.77212,0 -1.35453,0.13441 -1.44771,0.33409 -0.12473,0.26727 -0.18709,0.26727 -0.31182,0 -0.0896,-0.19188 -0.64887,-0.33409 -1.31407,-0.33409 -0.66521,0 -1.22453,0.14221 -1.31408,0.33409 -0.12473,0.26727 -0.18709,0.26727 -0.31181,0 -0.0932,-0.19968 -0.6756,-0.33409 -1.44771,-0.33409 -0.77211,0 -1.35453,0.13441 -1.44771,0.33409 -0.12473,0.26727 -0.18709,0.26727 -0.31182,0 -0.0932,-0.19968 -0.67559,-0.33409 -1.44771,-0.33409 -0.77211,0 -1.35452,0.13441 -1.44771,0.33409 -0.12472,0.26727 -0.18709,0.26727 -0.31181,0 -0.18692,-0.40053 -2.78406,-0.46286 -2.78406,-0.0668 0,0.147 -0.12027,0.26727 -0.26727,0.26727 -0.147,0 -0.26727,-0.12027 -0.26727,-0.26727 z"
       id="path1372-9" />
    <text
       xml:space="preserve"
       style="font-size:28.2222px;line-height:1.25;font-family:'Times New Roman';-inkscape-font-specification:'Times New Roman, ';stroke-width:0.264583"
       x="244.46303"
       y="363.36285"
       id="text1376-1"><tspan
         sodipodi:role="line"
         id="tspan1374-7"
         x="244.46303"
         y="363.36285"
         style="font-size:28.2222px;stroke-width:0.264583">ID</tspan></text>
    <text
       xml:space="preserve"
       style="font-size:28.2222px;line-height:1.25;font-family:'Times New Roman';-inkscape-font-specification:'Times New Roman, ';stroke-width:0.264583"
       x="631.74249"
       y="366.67279"
       id="text1380-7"><tspan
         sodipodi:role="line"
         id="tspan1378-1"
         x="631.74249"
         y="366.67279"
         style="font-size:28.2222px;stroke-width:0.264583">WB</tspan></text>
    <path
       style="fill:#cccccc;stroke:#000000;stroke-width:1.134;stroke-linecap:butt;stroke-linejoin:miter;stroke-miterlimit:4;stroke-dasharray:0, 12.474;stroke-dashoffset:0;paint-order:normal"
       d="m 92.974363,366.64382 c -0.13798,-11.57188 -0.25087,-25.00888 -0.25087,-29.85999 v -8.82021 h 15.308047 15.30806 v 29.86004 29.86001 H 108.28241 93.225223 Z"
       id="path1423-1" />
    <text
       xml:space="preserve"
       style="font-size:28.2222px;line-height:1.25;font-family:'Times New Roman';-inkscape-font-specification:'Times New Roman, ';stroke-width:0.264583"
       x="83.978653"
       y="363.99725"
       id="text1427-5"><tspan
         sodipodi:role="line"
         id="tspan1425-9"
         x="83.978653"
         y="363.99725"
         style="font-size:28.2222px;stroke-width:0.264583">IF</tspan></text>
    <path
       style="fill:none;stroke:#000000;stroke-width:0.79375;stroke-linecap:butt;stroke-linejoin:miter;stroke-miterlimit:4;stroke-dasharray:none;stroke-opacity:1"
       d="m 219.41124,349.43148 h -10.58333 v 10.58334"
       id="path1429-7" />
    <path
       style="fill:none;stroke:#000000;stroke-width:1.35942917;stroke-linecap:butt;stroke-linejoin:miter;stroke-miterlimit:4;stroke-dasharray:2.71885834,5.43771668;stroke-dashoffset:0;stroke-opacity:1"
       d="M 245.78555,51.574495 313.75427,337.82454"
       id="path1729" />
    <path
       style="fill:none;stroke:#000000;stroke-width:0.79375;stroke-linecap:butt;stroke-linejoin:miter;stroke-miterlimit:4;stroke-dasharray:none;stroke-opacity:1;marker-end:url(#marker2059)"
       d="M -177.98538,-7.605767 H 636.93127"
       id="path1735" />
    <path
       style="fill:none;stroke:#000000;stroke-width:0.79375;stroke-linecap:butt;stroke-linejoin:miter;stroke-miterlimit:4;stroke-dasharray:none;stroke-opacity:1"
       d="M 732.18127,444.3028 H -484.90205"
       id="path1737" />
    <text
       xml:space="preserve"
       style="font-size:28.2222px;line-height:1.25;font-family:'Times New Roman';-inkscape-font-specification:'Times New Roman, ';stroke-width:0.264583"
       x="-290.05121"
       y="-10.993039"
       id="text1741"><tspan
         sodipodi:role="line"
         id="tspan1739"
         x="-290.05121"
         y="-10.993039"
         style="font-size:28.2222px;stroke-width:0.264583">Time</tspan></text>
    <text
       xml:space="preserve"
       style="font-size:28.2222px;line-height:1.25;font-family:'Times New Roman';-inkscape-font-specification:'Times New Roman, ';stroke-width:0.264583"
       x="-456.62677"
       y="75.293747"
       id="text1745"><tspan
         sodipodi:role="line"
         id="tspan1743"
         x="-456.62677"
         y="75.293747"
         style="font-size:28.2222px;stroke-width:0.264583">ld <tspan
   style="fill:#00ff00"
   id="tspan1751">x1</tspan>, 0(x2)</tspan></text>
    <text
       xml:space="preserve"
       style="font-size:28.2222px;line-height:1.25;font-family:'Times New Roman';-inkscape-font-specification:'Times New Roman, ';stroke-width:0.264583"
       x="-454.40637"
       y="369.61905"
       id="text1749"><tspan
         sodipodi:role="line"
         id="tspan1747"
         x="-454.40637"
         y="369.61905"
         style="font-size:28.2222px;stroke-width:0.264583">sub x4, <tspan
   style="fill:#00ff00"
   id="tspan1753">x1</tspan> ,x5</tspan></text>
    <path
       style="fill:none;stroke:#000000;stroke-width:1.34472;stroke-linecap:butt;stroke-linejoin:miter;stroke-miterlimit:4;stroke-dasharray:none;stroke-opacity:1;marker-end:url(#Arrow1Lend)"
       d="M -484.90205,-18.1891 V 408.96409"
       id="path1761" />
    <path
       style="fill:none;stroke:#00e9e2;stroke-width:2.71588;stroke-linecap:butt;stroke-linejoin:miter;stroke-miterlimit:4;stroke-dasharray:none;stroke-opacity:1"
       d="m -60.622401,196.95513 c 43.091721,-29.55431 53.3124219,-19.93962 67.5115194,-17.05631 8.7490226,-26.4556 59.9604496,-25.0995 57.4426576,-2.30058 54.079774,-20.44083 51.582004,-19.8251 82.403714,19.16261 2.25199,35.18916 -5.3788,66.59252 -43.7529,60.10777 -1.97037,20.1372 -59.179889,48.25356 -70.842623,6.09823 -10.205203,35.37742 -46.514604,25.96761 -55.434627,-7.53493 -11.225872,0.99932 -63.380494,1.06676 -37.327741,-58.47679 z"
       id="path1133"
       sodipodi:nodetypes="cccccccc" />
    <text
       xml:space="preserve"
       style="font-size:45.2646px;line-height:1.25;font-family:'Times New Roman';-inkscape-font-specification:'Times New Roman, ';fill:#00dfd8;fill-opacity:1;stroke-width:0.678968"
       x="-7.3726149"
       y="228.05263"
       id="text1137"><tspan
         sodipodi:role="line"
         id="tspan1135"
         x="-7.3726149"
         y="228.05263"
         style="font-size:45.2646px;fill:#00dfd8;fill-opacity:1;stroke-width:0.678968">bubble</tspan></text>
    <path
       style="fill:none;stroke:#00e9e2;stroke-width:2.71588;stroke-linecap:butt;stroke-linejoin:miter;stroke-miterlimit:4;stroke-dasharray:none;stroke-opacity:1"
       d="m 212.70556,187.28945 c 43.09172,-29.55431 53.31242,-19.93962 67.51152,-17.05631 8.74902,-26.4556 59.96045,-25.0995 57.44266,-2.30058 54.07977,-20.44083 51.582,-19.8251 82.40371,19.16261 2.25199,35.18916 -5.3788,66.59252 -43.7529,60.10777 -1.97037,20.1372 -59.17989,48.25356 -70.84262,6.09823 -10.20521,35.37742 -46.51461,25.96761 -55.43463,-7.53493 -11.22587,0.99932 -63.38049,1.06676 -37.32774,-58.47679 z"
       id="path1133-5"
       sodipodi:nodetypes="cccccccc" />
    <text
       xml:space="preserve"
       style="font-size:45.2646px;line-height:1.25;font-family:'Times New Roman';-inkscape-font-specification:'Times New Roman, ';fill:#00dfd8;fill-opacity:1;stroke-width:0.678968"
       x="265.95535"
       y="218.38695"
       id="text1137-3"><tspan
         sodipodi:role="line"
         id="tspan1135-5"
         x="265.95535"
         y="218.38695"
         style="font-size:45.2646px;fill:#00dfd8;fill-opacity:1;stroke-width:0.678968">bubble</tspan></text>
    <path
       style="fill:none;stroke:#00e9e2;stroke-width:2.71588;stroke-linecap:butt;stroke-linejoin:miter;stroke-miterlimit:4;stroke-dasharray:none;stroke-opacity:1"
       d="m 483.33651,172.1704 c 43.09172,-29.55431 53.31242,-19.93962 67.51152,-17.05631 8.74902,-26.4556 59.96045,-25.0995 57.44266,-2.30058 54.07977,-20.44083 51.582,-19.8251 82.40371,19.16261 2.25199,35.18916 -5.3788,66.59252 -43.7529,60.10777 -1.97037,20.13721 -59.17989,48.25357 -70.84262,6.09824 -10.20521,35.37742 -46.51461,25.96761 -55.43463,-7.53494 -11.22587,0.99932 -63.38049,1.06677 -37.32774,-58.47679 z"
       id="path1133-6"
       sodipodi:nodetypes="cccccccc" />
    <text
       xml:space="preserve"
       style="font-size:45.2646px;line-height:1.25;font-family:'Times New Roman';-inkscape-font-specification:'Times New Roman, ';fill:#00dfd8;fill-opacity:1;stroke-width:0.678968"
       x="536.5863"
       y="203.2679"
       id="text1137-2"><tspan
         sodipodi:role="line"
         id="tspan1135-9"
         x="536.5863"
         y="203.2679"
         style="font-size:45.2646px;fill:#00dfd8;fill-opacity:1;stroke-width:0.678968">bubble</tspan></text>
  </g>
</svg>
