<?xml version="1.0" encoding="UTF-8" standalone="no"?>
<svg
   xmlns:dc="http://purl.org/dc/elements/1.1/"
   xmlns:cc="http://creativecommons.org/ns#"
   xmlns:rdf="http://www.w3.org/1999/02/22-rdf-syntax-ns#"
   xmlns:svg="http://www.w3.org/2000/svg"
   xmlns="http://www.w3.org/2000/svg"
   xmlns:xlink="http://www.w3.org/1999/xlink"
   xmlns:sodipodi="http://sodipodi.sourceforge.net/DTD/sodipodi-0.dtd"
   xmlns:inkscape="http://www.inkscape.org/namespaces/inkscape"
   width="210mm"
   height="297mm"
   viewBox="0 0 210 297"
   version="1.1"
   id="svg8"
   sodipodi:docname="数据冒险1.svg"
   inkscape:version="1.0.2 (e86c870879, 2021-01-15, custom)">
  <defs
     id="defs2">
    <marker
       style="overflow:visible;"
       id="marker2059"
       refX="0.0"
       refY="0.0"
       orient="auto"
       inkscape:stockid="Arrow1Lend"
       inkscape:isstock="true">
      <path
         transform="scale(0.8) rotate(180) translate(12.5,0)"
         style="fill-rule:evenodd;stroke:#000000;stroke-width:1pt;stroke-opacity:1;fill:#000000;fill-opacity:1"
         d="M 0.0,0.0 L 5.0,-5.0 L -12.5,0.0 L 5.0,5.0 L 0.0,0.0 z "
         id="path2057" />
    </marker>
    <marker
       style="overflow:visible;"
       id="Arrow1Lend"
       refX="0.0"
       refY="0.0"
       orient="auto"
       inkscape:stockid="Arrow1Lend"
       inkscape:isstock="true"
       inkscape:collect="always">
      <path
         transform="scale(0.8) rotate(180) translate(12.5,0)"
         style="fill-rule:evenodd;stroke:#000000;stroke-width:1pt;stroke-opacity:1;fill:#000000;fill-opacity:1"
         d="M 0.0,0.0 L 5.0,-5.0 L -12.5,0.0 L 5.0,5.0 L 0.0,0.0 z "
         id="path1766" />
    </marker>
  </defs>
  <sodipodi:namedview
     id="base"
     pagecolor="#ffffff"
     bordercolor="#666666"
     borderopacity="1.0"
     inkscape:pageopacity="0.0"
     inkscape:pageshadow="2"
     inkscape:zoom="0.12374369"
     inkscape:cx="64.420822"
     inkscape:cy="559.15489"
     inkscape:document-units="px"
     inkscape:current-layer="layer1"
     inkscape:document-rotation="0"
     showgrid="false"
     showborder="false"
     inkscape:window-width="1324"
     inkscape:window-height="1019"
     inkscape:window-x="582"
     inkscape:window-y="47"
     inkscape:window-maximized="0"
     inkscape:snap-page="false"
     inkscape:snap-to-guides="true"
     showguides="true">
    <inkscape:grid
       type="xygrid"
       id="grid1067" />
  </sodipodi:namedview>
  <metadata
     id="metadata5">
    <rdf:RDF>
      <cc:Work
         rdf:about="">
        <dc:format>image/svg+xml</dc:format>
        <dc:type
           rdf:resource="http://purl.org/dc/dcmitype/StillImage" />
        <dc:title></dc:title>
      </cc:Work>
    </rdf:RDF>
  </metadata>
  <g
     inkscape:label="Layer 1"
     inkscape:groupmode="layer"
     id="layer1">
    <rect
       style="fill:#ffffff;stroke:#000000;stroke-width:0.79375"
       id="rect853"
       width="64.926132"
       height="60.670509"
       x="-168.23842"
       y="52.29076" />
    <rect
       style="fill:#ffffff;stroke:#000000;stroke-width:0.79375;stroke-miterlimit:4;stroke-dasharray:6.35000002,3.17500001;stroke-dashoffset:0"
       id="rect853-5"
       width="64.926132"
       height="60.670509"
       x="-7.7215209"
       y="50.526859" />
    <rect
       style="fill:#ffffff;stroke:#000000;stroke-width:0.79375"
       id="rect853-6"
       width="64.926132"
       height="60.670509"
       x="236.04962"
       y="50.474941" />
    <rect
       style="fill:#ffffff;stroke:#000000;stroke-width:0.79375;stroke-miterlimit:4;stroke-dasharray:6.35000002,3.17500001;stroke-dashoffset:0;stroke-linejoin:miter;paint-order:normal"
       id="rect853-2"
       width="64.926132"
       height="60.670509"
       x="396.56653"
       y="52.06245" />
    <path
       style="fill:none;stroke:#000000;stroke-width:1.08426;stroke-linecap:butt;stroke-linejoin:miter;stroke-miterlimit:4;stroke-dasharray:none;stroke-opacity:1"
       d="m 123.97028,36.586161 v 28.91348"
       id="path1083" />
    <path
       style="fill:none;stroke:#000000;stroke-width:1.08426;stroke-linecap:butt;stroke-linejoin:miter;stroke-miterlimit:4;stroke-dasharray:none;stroke-opacity:1"
       d="M 123.97028,65.499641 138.4271,79.956432 123.97028,94.413216"
       id="path1085" />
    <path
       style="fill:none;stroke:#000000;stroke-width:1.08426;stroke-linecap:butt;stroke-linejoin:miter;stroke-miterlimit:4;stroke-dasharray:none;stroke-opacity:1;paint-order:normal"
       d="M 123.97028,94.413216 V 123.32667 L 167.34075,94.413216 V 65.499641 l -43.37047,-28.91348"
       id="path1087" />
    <use
       x="0"
       y="0"
       xlink:href="#path1085"
       id="use1089"
       width="100%"
       height="100%"
       style="fill:none;paint-order:normal;stroke-linecap:butt" />
    <path
       style="fill:none;stroke:#000000;stroke-width:0.79375;stroke-linecap:butt;stroke-linejoin:miter;stroke-opacity:1;stroke-miterlimit:4;stroke-dasharray:none"
       d="M -102.45277,85.004176 -8.8003117,84.417187"
       id="path1095" />
    <path
       style="fill:none;stroke:#000000;stroke-width:0.789612;stroke-linecap:butt;stroke-linejoin:miter;stroke-miterlimit:4;stroke-dasharray:none;stroke-opacity:1"
       d="m 300.73114,78.011157 96.48641,0.692187"
       id="path1112" />
    <path
       style="fill:none;stroke:#000000;stroke-width:0.81581;stroke-linecap:butt;stroke-linejoin:miter;stroke-miterlimit:4;stroke-dasharray:none;stroke-opacity:1"
       d="m 166.52069,80.289642 69.44982,-0.217394"
       id="path1112-2" />
    <path
       style="fill:none;stroke:#000000;stroke-width:0.821383;stroke-linecap:butt;stroke-linejoin:miter;stroke-miterlimit:4;stroke-dasharray:none;stroke-opacity:1"
       d="m 57.612958,54.579844 66.797332,-0.19262"
       id="path1150" />
    <path
       style="fill:none;stroke:#000000;stroke-width:0.821383;stroke-linecap:butt;stroke-linejoin:miter;stroke-miterlimit:4;stroke-dasharray:none;stroke-opacity:1"
       d="m 56.106097,108.04629 66.797333,-0.19262"
       id="path1150-7" />
    <text
       xml:space="preserve"
       style="font-size:24.6944px;line-height:1.25;font-family:'Times New Roman';-inkscape-font-specification:'Times New Roman, ';stroke-width:0.264583"
       x="135.62015"
       y="89.776421"
       id="text1174-3"><tspan
         sodipodi:role="line"
         id="tspan1172-6"
         x="135.62015"
         y="89.776421"
         style="font-size:24.6944px;stroke-width:0.264583">EX</tspan></text>
    <text
       xml:space="preserve"
       style="font-size:28.2222px;line-height:1.25;font-family:'Times New Roman';-inkscape-font-specification:'Times New Roman, ';stroke-width:0.264583"
       x="234.80127"
       y="90.759155"
       id="text1174-06"><tspan
         sodipodi:role="line"
         id="tspan1172-2"
         x="234.80127"
         y="90.759155"
         style="font-size:28.2222px;stroke-width:0.264583">MEM</tspan></text>
    <path
       style="fill:#cccccc;stroke:#000000;stroke-width:0.801809;stroke-linecap:butt;stroke-linejoin:miter;stroke-miterlimit:4;stroke-dasharray:0, 8.8199;stroke-dashoffset:0;paint-order:normal"
       d="m 397.30435,111.55589 c -0.0183,-0.81611 -0.16764,-1.44466 -0.3651,-1.5368 -0.26725,-0.12472 -0.26725,-0.18709 0,-0.31181 0.19971,-0.0932 0.33409,-0.6756 0.33409,-1.44771 0,-0.77211 -0.13438,-1.35453 -0.33409,-1.44771 -0.26725,-0.12473 -0.26725,-0.18709 0,-0.31181 0.44601,-0.20814 0.44601,-2.6873 0,-2.89543 -0.26725,-0.12472 -0.26725,-0.18708 0,-0.31181 0.44601,-0.20813 0.44601,-2.68729 0,-2.89542 -0.26725,-0.12472 -0.26725,-0.18709 0,-0.31181 0.19971,-0.0932 0.33409,-0.675597 0.33409,-1.447707 0,-0.77212 -0.13438,-1.35453 -0.33409,-1.44772 -0.26725,-0.12472 -0.26725,-0.18708 0,-0.31181 0.1919,-0.0896 0.33409,-0.64887 0.33409,-1.31407 0,-0.66521 -0.14219,-1.224527 -0.33409,-1.314077 -0.26725,-0.12472 -0.26725,-0.18709 0,-0.31181 0.19971,-0.0932 0.33409,-0.6756 0.33409,-1.44771 0,-0.77212 -0.13438,-1.35453 -0.33409,-1.44772 -0.26725,-0.12472 -0.26725,-0.18708 0,-0.31181 0.44601,-0.20813 0.44601,-2.687281 0,-2.895411 -0.26725,-0.124717 -0.26725,-0.187087 0,-0.311807 0.19971,-0.0932 0.33409,-0.675597 0.33409,-1.447701 0,-0.772107 -0.13438,-1.354524 -0.33409,-1.447701 -0.26725,-0.12473 -0.26725,-0.18709 0,-0.31182 0.19971,-0.0932 0.33409,-0.675587 0.33409,-1.447701 0,-0.782957 -0.13158,-1.345194 -0.33409,-1.427351 -0.23825,-0.0967 -0.24955,-0.19888 -0.0394,-0.35636 0.16206,-0.12144 0.37669,-0.852219 0.47691,-1.623959 0.16005,-1.23236 0.12417,-1.40574 -0.29469,-1.42427 -0.28006,-0.0124 -0.33901,-0.0768 -0.14285,-0.1559 0.20262,-0.0817 0.33409,-0.64325 0.33409,-1.42661 0,-0.77212 -0.13438,-1.35453 -0.33409,-1.44771 -0.26725,-0.12473 -0.26725,-0.18709 0,-0.31182 0.44601,-0.20813 0.44601,-2.68729 0,-2.89542 -0.26725,-0.12472 -0.26725,-0.18709 0,-0.31181 0.44048,-0.20555 0.44048,-2.4226 0,-2.62815 -0.26725,-0.12473 -0.26725,-0.18709 0,-0.31182 0.44601,-0.20813 0.44601,-2.68729 0,-2.89542 -0.26725,-0.12472 -0.26725,-0.18709 0,-0.31181 0.19971,-0.0932 0.33409,-0.6756 0.33409,-1.44771 0,-0.77211 -0.13438,-1.35453 -0.33409,-1.44771 -0.26725,-0.12473 -0.26725,-0.18709 0,-0.31182 0.44601,-0.20812 0.44601,-2.68729 0,-2.89542 -0.26725,-0.12472 -0.26725,-0.18708 0,-0.31181 0.19971,-0.0932 0.33409,-0.6756 0.33409,-1.44771 0,-0.77211 -0.13438,-1.35453 -0.33409,-1.44771 -0.26725,-0.12473 -0.26725,-0.18709 0,-0.31182 0.40056,-0.18691 0.46286,-2.784053 0.0668,-2.784053 -0.14701,0 -0.26729,-0.120272 -0.26729,-0.267269 0,-0.147 0.59135,-0.267269 1.31408,-0.267269 0.78994,0 1.37626,-0.133257 1.47,-0.334087 0.12473,-0.267271 0.18709,-0.267271 0.31181,0 0.0932,0.199684 0.67559,0.334087 1.4477,0.334087 0.7721,0 1.35453,-0.134403 1.44772,-0.334087 0.12472,-0.267271 0.18709,-0.267271 0.31181,0 0.20812,0.44599 2.68729,0.44599 2.89541,0 0.12473,-0.267271 0.18709,-0.267271 0.31182,0 0.20555,0.440465 2.4226,0.440465 2.62816,0 0.12472,-0.267271 0.18708,-0.267271 0.31181,0 0.20812,0.44599 2.68729,0.44599 2.89541,0 0.12473,-0.267271 0.18709,-0.267271 0.31181,0 0.20815,0.44599 2.6873,0.44599 2.89544,0 0.12473,-0.267271 0.18709,-0.267271 0.31182,0 0.0932,0.199684 0.67558,0.334087 1.44769,0.334087 0.77211,0 1.35453,-0.134403 1.44772,-0.334087 0.12472,-0.267271 0.18709,-0.267271 0.31181,0 0.20812,0.44599 2.6873,0.44599 2.89542,0 0.12472,-0.267271 0.18708,-0.267271 0.31181,0 0.0932,0.199684 0.67561,0.334087 1.44772,0.334087 0.77211,0 1.35451,-0.134403 1.44769,-0.334087 0.12473,-0.267271 0.18712,-0.267271 0.31184,0 0.20812,0.44599 2.68727,0.44599 2.89542,0 0.12472,-0.267271 0.18708,-0.267271 0.31181,0 0.0857,0.183748 0.31181,0.334087 0.50233,0.334087 0.28099,0 0.3682,5.618471 0.46149,29.733724 0.0632,16.353515 0.0637,29.944162 0,30.201412 -0.13925,0.57133 -0.58621,0.62228 -0.58621,0.0668 0,-0.30291 -0.32665,-0.40091 -1.33633,-0.40091 -1.0097,0 -1.33636,0.098 -1.33636,0.40091 0,0.22049 -0.12028,0.4009 -0.26725,0.4009 -0.14701,0 -0.26729,-0.18041 -0.26729,-0.4009 0,-0.30291 -0.32665,-0.40091 -1.33635,-0.40091 -1.00968,0 -1.33633,0.098 -1.33633,0.40091 0,0.22049 -0.12028,0.4009 -0.26729,0.4009 -0.147,0 -0.26725,-0.18041 -0.26725,-0.4009 0,-0.30291 -0.32668,-0.40091 -1.33636,-0.40091 -1.00968,0 -1.33636,0.098 -1.33636,0.40091 0,0.22049 -0.12025,0.4009 -0.26725,0.4009 -0.14701,0 -0.26728,-0.18041 -0.26728,-0.4009 0,-0.30291 -0.32666,-0.40091 -1.33634,-0.40091 -1.0097,0 -1.33635,0.098 -1.33635,0.40091 0,0.22049 -0.12026,0.4009 -0.26726,0.4009 -0.147,0 -0.26728,-0.18041 -0.26728,-0.4009 0,-0.30291 -0.32666,-0.40091 -1.33633,-0.40091 -1.00971,0 -1.33636,0.098 -1.33636,0.40091 0,0.22049 -0.12028,0.4009 -0.26728,0.4009 -0.14698,0 -0.26726,-0.18041 -0.26726,-0.4009 0,-0.29697 -0.31181,-0.40091 -1.20271,-0.40091 -0.89091,0 -1.20272,0.10394 -1.20272,0.40091 0,0.22049 -0.10739,0.4009 -0.23868,0.4009 -0.13126,0 -0.3079,-0.18041 -0.39251,-0.4009 -0.10549,-0.27475 -0.53501,-0.40091 -1.36499,-0.40091 -0.89836,0 -1.2111,0.10353 -1.2111,0.40091 0,0.22049 -0.12028,0.4009 -0.26728,0.4009 -0.147,0 -0.26726,-0.18041 -0.26726,-0.4009 0,-0.30291 -0.32668,-0.40091 -1.33635,-0.40091 -1.00968,0 -1.33636,0.098 -1.33636,0.40091 0,0.22049 -0.12026,0.4009 -0.26726,0.4009 -0.147,0 -0.26728,-0.18041 -0.26728,-0.4009 0,-0.30291 -0.32665,-0.40091 -1.33633,-0.40091 -1.0097,0 -1.33636,0.098 -1.33636,0.40091 0,0.22049 -0.12028,0.4009 -0.26725,0.4009 -0.14701,0 -0.26729,-0.18041 -0.26729,-0.4009 0,-0.62782 -2.59061,-0.56501 -2.75571,0.0668 -0.0672,0.25725 -0.13618,-0.15368 -0.15325,-0.91317 z"
       id="path1366" />
    <path
       style="fill:#cccccc;stroke:#000000;stroke-width:0.801809;stroke-linecap:butt;stroke-linejoin:miter;stroke-miterlimit:4;stroke-dasharray:0, 8.8199;stroke-dashoffset:0;paint-order:normal"
       d="m 27.232157,111.46464 c 0,-0.147 -0.280884,-0.26727 -0.624189,-0.26727 h -0.62419 L 25.806345,90.149898 c -0.282269,-33.483499 -0.25293,-38.553627 0.223099,-38.553627 0.220497,0 0.400904,-0.180409 0.400904,-0.400905 0,-0.220499 0.120271,-0.400905 0.267269,-0.400905 0.147,0 0.267271,0.180406 0.267271,0.400905 0,0.302906 0.326663,0.400905 1.336347,0.400905 1.009684,0 1.336347,-0.098 1.336347,-0.400905 0,-0.220499 0.120272,-0.400905 0.267269,-0.400905 0.147,0 0.267271,0.180406 0.267271,0.400905 0,0.302906 0.326663,0.400905 1.336347,0.400905 1.009685,0 1.336347,-0.098 1.336347,-0.400905 0,-0.220499 0.120272,-0.400905 0.267272,-0.400905 0.146997,0 0.267268,0.180406 0.267268,0.400905 0,0.296966 0.311815,0.400905 1.202712,0.400905 0.890899,0 1.202713,-0.103939 1.202713,-0.400905 0,-0.220499 0.107405,-0.400905 0.238676,-0.400905 0.13127,0 0.307903,0.180406 0.392514,0.400905 0.105432,0.274743 0.534964,0.400905 1.364943,0.400905 0.898356,0 1.211102,-0.103529 1.211102,-0.400905 0,-0.220499 0.120271,-0.400905 0.267268,-0.400905 0.147,0 0.267272,0.180406 0.267272,0.400905 0,0.302906 0.326662,0.400905 1.336347,0.400905 1.009684,0 1.336347,-0.098 1.336347,-0.400905 0,-0.220499 0.120271,-0.400905 0.267269,-0.400905 0.146999,0 0.267271,0.180406 0.267271,0.400905 0,0.302906 0.326663,0.400905 1.336347,0.400905 1.009684,0 1.336347,-0.098 1.336347,-0.400905 0,-0.220499 0.120272,-0.400905 0.267269,-0.400905 0.147,0 0.267271,0.180406 0.267271,0.400905 0,0.302906 0.326663,0.400905 1.336347,0.400905 1.009684,0 1.336347,-0.098 1.336347,-0.400905 0,-0.220499 0.120272,-0.400905 0.267272,-0.400905 0.146997,0 0.267268,0.180406 0.267268,0.400905 0,0.302906 0.326663,0.400905 1.336347,0.400905 1.009685,0 1.336347,-0.098 1.336347,-0.400905 0,-0.220499 0.120272,-0.400905 0.267272,-0.400905 0.146997,0 0.267268,0.180406 0.267268,0.400905 0,0.302906 0.326663,0.400905 1.336347,0.400905 1.009687,0 1.336347,-0.098 1.336347,-0.400905 0,-0.220499 0.120272,-0.400905 0.267272,-0.400905 0.146997,0 0.267269,0.180406 0.267269,0.400905 0,0.220496 0.188997,0.400905 0.419994,0.400905 0.585438,0 1.422313,0.855879 0.980784,1.003053 -0.446193,0.148733 -0.444106,2.641717 0.0024,2.850082 0.267269,0.124724 0.267269,0.187089 0,0.311814 -0.199705,0.09319 -0.334105,0.675597 -0.334105,1.44771 0,0.772112 0.1344,1.354523 0.334087,1.44771 0.267268,0.124724 0.267268,0.187089 0,0.311814 -0.44599,0.208129 -0.44599,2.687291 0,2.89542 0.267268,0.124724 0.267268,0.187089 0,0.311814 -0.440465,0.205552 -0.440465,2.422599 0,2.628151 0.267268,0.124725 0.267268,0.187087 0,0.311814 -0.44599,0.208129 -0.44599,2.687291 0,2.89542 0.267268,0.124725 0.267268,0.18709 0,0.311814 -0.199687,0.09319 -0.334087,0.675598 -0.334087,1.44771 0,0.772113 0.1344,1.354524 0.334087,1.44771 0.267268,0.124725 0.267268,0.18709 0,0.311814 -0.44599,0.20813 -0.44599,2.687291 0,2.895421 0.267268,0.124724 0.267268,0.187089 0,0.311814 -0.199687,0.09319 -0.334087,0.675597 -0.334087,1.44771 0,0.772112 0.1344,1.354523 0.334087,1.44771 0.267268,0.124724 0.267268,0.187089 0,0.311814 -0.44599,0.208129 -0.44599,2.687291 0,2.89542 0.267268,0.124724 0.267268,0.187089 0,0.311814 -0.199687,0.09319 -0.334087,0.675598 -0.334087,1.44771 0,0.772112 0.1344,1.354524 0.334087,1.44771 0.267268,0.124725 0.267268,0.18709 0,0.311814 -0.44599,0.208132 -0.44599,2.687291 0,2.895423 0.267268,0.124722 0.267268,0.187087 0,0.311811 -0.440465,0.205552 -0.440465,2.422599 0,2.628151 0.267268,0.124725 0.267268,0.18709 0,0.311815 -0.199687,0.09319 -0.334087,0.675597 -0.334087,1.44771 0,0.772112 0.1344,1.354523 0.334087,1.44771 0.267268,0.124724 0.267268,0.187089 0,0.311814 -0.199687,0.09319 -0.334087,0.675597 -0.334087,1.44771 0,0.772112 0.1344,1.354523 0.334087,1.44771 0.267268,0.124724 0.267268,0.187089 0,0.311814 -0.199687,0.09319 -0.334087,0.675597 -0.334087,1.44771 0,0.772112 0.1344,1.354524 0.334087,1.44771 0.267268,0.124724 0.267268,0.187094 0,0.311814 -0.44599,0.20813 -0.44599,2.68729 0,2.89542 0.267268,0.12472 0.267268,0.18709 0,0.31181 -0.199687,0.0932 -0.334087,0.6756 -0.334087,1.44771 0,0.77212 0.1344,1.35453 0.334087,1.44772 0.267268,0.12472 0.267268,0.18708 0,0.31181 -0.183748,0.0858 -0.334087,0.44656 -0.334087,0.80181 0,0.39595 -0.155139,0.6459 -0.400905,0.6459 -0.689247,0 -0.463566,0.9954 0.267269,1.17883 0.642898,0.16136 0.950331,0.69206 0.400905,0.69206 -0.146997,0 -0.269111,0.27061 -0.271362,0.60135 -0.0053,0.77687 -0.513384,1.54551 -0.7067,1.06908 -0.08216,-0.20249 -0.6444,-0.33409 -1.427363,-0.33409 -0.772113,0 -1.354524,0.13441 -1.44771,0.33409 -0.124725,0.26727 -0.18709,0.26727 -0.311814,0 -0.09319,-0.19968 -0.675598,-0.33409 -1.44771,-0.33409 -0.772113,0 -1.354524,0.13441 -1.44771,0.33409 -0.124728,0.26727 -0.18709,0.26727 -0.311814,0 -0.09319,-0.19968 -0.675598,-0.33409 -1.447711,-0.33409 -0.772112,0 -1.354523,0.13441 -1.44771,0.33409 -0.124727,0.26727 -0.187089,0.26727 -0.311814,0 -0.09319,-0.19968 -0.675597,-0.33409 -1.44771,-0.33409 -0.772112,0 -1.354523,0.13441 -1.44771,0.33409 -0.124727,0.26727 -0.187089,0.26727 -0.311814,0 -0.09319,-0.19968 -0.675597,-0.33409 -1.44771,-0.33409 -0.772112,0 -1.354524,0.13441 -1.44771,0.33409 -0.124727,0.26727 -0.187089,0.26727 -0.311814,0 -0.08955,-0.19188 -0.648872,-0.33409 -1.314077,-0.33409 -0.665205,0 -1.224529,0.14221 -1.314074,0.33409 -0.124727,0.26727 -0.18709,0.26727 -0.311814,0 -0.09319,-0.19968 -0.675598,-0.33409 -1.44771,-0.33409 -0.772113,0 -1.354524,0.13441 -1.44771,0.33409 -0.124727,0.26727 -0.18709,0.26727 -0.311814,0 -0.09319,-0.19968 -0.675598,-0.33409 -1.44771,-0.33409 -0.772113,0 -1.354524,0.13441 -1.44771,0.33409 -0.124728,0.26727 -0.18709,0.26727 -0.311815,0 -0.186914,-0.40053 -2.784059,-0.46286 -2.784059,-0.0668 0,0.147 -0.120269,0.26727 -0.267269,0.26727 -0.146997,0 -0.267269,-0.12027 -0.267269,-0.26727 z"
       id="path1372" />
    <text
       xml:space="preserve"
       style="font-size:28.2222px;line-height:1.25;font-family:'Times New Roman';-inkscape-font-specification:'Times New Roman, ';stroke-width:0.264583"
       x="17.114361"
       y="88.015419"
       id="text1376"><tspan
         sodipodi:role="line"
         id="tspan1374"
         x="17.114361"
         y="88.015419"
         style="font-size:28.2222px;stroke-width:0.264583">ID</tspan></text>
    <text
       xml:space="preserve"
       style="font-size:28.2222px;line-height:1.25;font-family:'Times New Roman';-inkscape-font-specification:'Times New Roman, ';stroke-width:0.264583"
       x="404.39359"
       y="91.325363"
       id="text1380"><tspan
         sodipodi:role="line"
         id="tspan1378"
         x="404.39359"
         y="91.325363"
         style="font-size:28.2222px;stroke-width:0.264583">WB</tspan></text>
    <path
       style="fill:#cccccc;stroke:#000000;stroke-width:1.134;stroke-linecap:butt;stroke-linejoin:miter;stroke-miterlimit:4;stroke-dasharray:0, 12.474;stroke-dashoffset:0;paint-order:normal"
       d="m -134.37433,91.295671 c -0.13798,-11.571884 -0.25087,-25.008878 -0.25087,-29.859992 v -8.820208 h 15.30805 15.30805 v 29.860041 29.860008 h -15.05718 -15.05719 z"
       id="path1423" />
    <text
       xml:space="preserve"
       style="font-size:28.2222px;line-height:1.25;font-family:'Times New Roman';-inkscape-font-specification:'Times New Roman, ';stroke-width:0.264583"
       x="-143.37004"
       y="88.649834"
       id="text1427"><tspan
         sodipodi:role="line"
         id="tspan1425"
         x="-143.37004"
         y="88.649834"
         style="font-size:28.2222px;stroke-width:0.264583">IF</tspan></text>
    <path
       style="fill:none;stroke:#000000;stroke-width:0.79375;stroke-linecap:butt;stroke-linejoin:miter;stroke-opacity:1;stroke-miterlimit:4;stroke-dasharray:none"
       d="M -7.9374999,74.083332 H -18.520833 l 0,10.583335"
       id="path1429" />
    <rect
       style="fill:#ffffff;stroke:#000000;stroke-width:0.79375"
       id="rect853-8"
       width="64.926132"
       height="60.670509"
       x="-6.3210034"
       y="200.83611" />
    <rect
       style="fill:#ffffff;stroke:#000000;stroke-width:0.79375;stroke-miterlimit:4;stroke-dasharray:6.35, 3.175;stroke-dashoffset:0"
       id="rect853-5-7"
       width="64.926132"
       height="60.670509"
       x="154.19589"
       y="199.0722" />
    <rect
       style="fill:#ffffff;stroke:#000000;stroke-width:0.79375"
       id="rect853-6-1"
       width="64.926132"
       height="60.670509"
       x="397.96701"
       y="199.02029" />
    <rect
       style="fill:#ffffff;stroke:#000000;stroke-width:0.79375;stroke-linejoin:miter;stroke-miterlimit:4;stroke-dasharray:6.35, 3.175;stroke-dashoffset:0;paint-order:normal"
       id="rect853-2-7"
       width="64.926132"
       height="60.670509"
       x="558.48413"
       y="200.6078" />
    <path
       style="fill:none;stroke:#000000;stroke-width:1.08426;stroke-linecap:butt;stroke-linejoin:miter;stroke-miterlimit:4;stroke-dasharray:none;stroke-opacity:1"
       d="m 285.88774,185.13151 v 28.91348"
       id="path1083-2" />
    <path
       style="fill:none;stroke:#000000;stroke-width:1.08426;stroke-linecap:butt;stroke-linejoin:miter;stroke-miterlimit:4;stroke-dasharray:none;stroke-opacity:1"
       d="m 285.88774,214.04499 14.45682,14.45679 -14.45682,14.45679"
       id="path1085-7" />
    <path
       style="fill:none;stroke:#000000;stroke-width:1.08426;stroke-linecap:butt;stroke-linejoin:miter;stroke-miterlimit:4;stroke-dasharray:none;stroke-opacity:1;paint-order:normal"
       d="m 285.88774,242.95857 v 28.91345 l 43.37047,-28.91345 v -28.91358 l -43.37047,-28.91348"
       id="path1087-2" />
    <use
       x="0"
       y="0"
       xlink:href="#path1085-7"
       id="use1089-2"
       width="100%"
       height="100%"
       style="fill:none;stroke-linecap:butt;paint-order:normal" />
    <path
       style="fill:none;stroke:#000000;stroke-width:0.79375;stroke-linecap:butt;stroke-linejoin:miter;stroke-miterlimit:4;stroke-dasharray:none;stroke-opacity:1"
       d="m 59.464645,233.54953 93.652505,-0.58699"
       id="path1095-6" />
    <path
       style="fill:none;stroke:#000000;stroke-width:0.789612;stroke-linecap:butt;stroke-linejoin:miter;stroke-miterlimit:4;stroke-dasharray:none;stroke-opacity:1"
       d="m 462.6486,226.55651 96.48641,0.69218"
       id="path1112-1" />
    <path
       style="fill:none;stroke:#000000;stroke-width:0.81581;stroke-linecap:butt;stroke-linejoin:miter;stroke-miterlimit:4;stroke-dasharray:none;stroke-opacity:1"
       d="m 328.43815,228.83499 69.44982,-0.21739"
       id="path1112-2-0" />
    <path
       style="fill:none;stroke:#000000;stroke-width:0.821383;stroke-linecap:butt;stroke-linejoin:miter;stroke-miterlimit:4;stroke-dasharray:none;stroke-opacity:1"
       d="m 219.53042,203.12519 66.79733,-0.19262"
       id="path1150-6" />
    <path
       style="fill:none;stroke:#000000;stroke-width:0.821383;stroke-linecap:butt;stroke-linejoin:miter;stroke-miterlimit:4;stroke-dasharray:none;stroke-opacity:1"
       d="m 218.02356,256.59164 66.79733,-0.19262"
       id="path1150-7-1" />
    <text
       xml:space="preserve"
       style="font-size:24.6944px;line-height:1.25;font-family:'Times New Roman';-inkscape-font-specification:'Times New Roman, ';stroke-width:0.264583"
       x="297.53754"
       y="238.32178"
       id="text1174-3-5"><tspan
         sodipodi:role="line"
         id="tspan1172-6-9"
         x="297.53754"
         y="238.32178"
         style="font-size:24.6944px;stroke-width:0.264583">EX</tspan></text>
    <text
       xml:space="preserve"
       style="font-size:28.2222px;line-height:1.25;font-family:'Times New Roman';-inkscape-font-specification:'Times New Roman, ';stroke-width:0.264583"
       x="396.71866"
       y="239.3045"
       id="text1174-06-4"><tspan
         sodipodi:role="line"
         id="tspan1172-2-9"
         x="396.71866"
         y="239.3045"
         style="font-size:28.2222px;stroke-width:0.264583">MEM</tspan></text>
    <path
       style="fill:#cccccc;stroke:#000000;stroke-width:0.801809;stroke-linecap:butt;stroke-linejoin:miter;stroke-miterlimit:4;stroke-dasharray:0, 8.8199;stroke-dashoffset:0;paint-order:normal"
       d="m 559.22181,260.10124 c -0.0183,-0.81611 -0.16764,-1.44466 -0.3651,-1.5368 -0.26725,-0.12472 -0.26725,-0.18709 0,-0.31181 0.19971,-0.0932 0.33409,-0.6756 0.33409,-1.44771 0,-0.77211 -0.13438,-1.35453 -0.33409,-1.44771 -0.26725,-0.12473 -0.26725,-0.18709 0,-0.31181 0.44601,-0.20814 0.44601,-2.6873 0,-2.89543 -0.26725,-0.12472 -0.26725,-0.18708 0,-0.31181 0.44601,-0.20813 0.44601,-2.68729 0,-2.89542 -0.26725,-0.12472 -0.26725,-0.18709 0,-0.31181 0.19971,-0.0932 0.33409,-0.6756 0.33409,-1.44771 0,-0.77212 -0.13438,-1.35453 -0.33409,-1.44772 -0.26725,-0.12472 -0.26725,-0.18708 0,-0.31181 0.1919,-0.0896 0.33409,-0.64887 0.33409,-1.31407 0,-0.66521 -0.14219,-1.22452 -0.33409,-1.31407 -0.26725,-0.12472 -0.26725,-0.18709 0,-0.31181 0.19971,-0.0932 0.33409,-0.6756 0.33409,-1.44771 0,-0.77212 -0.13438,-1.35453 -0.33409,-1.44772 -0.26725,-0.12472 -0.26725,-0.18708 0,-0.31181 0.44601,-0.20813 0.44601,-2.68728 0,-2.89541 -0.26725,-0.12472 -0.26725,-0.18709 0,-0.31181 0.19971,-0.0932 0.33409,-0.6756 0.33409,-1.4477 0,-0.77211 -0.13438,-1.35453 -0.33409,-1.4477 -0.26725,-0.12473 -0.26725,-0.18709 0,-0.31182 0.19971,-0.0932 0.33409,-0.67559 0.33409,-1.4477 0,-0.78296 -0.13158,-1.3452 -0.33409,-1.42736 -0.23825,-0.0967 -0.24955,-0.19888 -0.0394,-0.35636 0.16206,-0.12144 0.37669,-0.85221 0.47691,-1.62395 0.16005,-1.23236 0.12417,-1.40574 -0.29469,-1.42427 -0.28006,-0.0124 -0.33901,-0.0768 -0.14285,-0.1559 0.20262,-0.0817 0.33409,-0.64325 0.33409,-1.42661 0,-0.77212 -0.13438,-1.35453 -0.33409,-1.44771 -0.26725,-0.12473 -0.26725,-0.18709 0,-0.31182 0.44601,-0.20813 0.44601,-2.68729 0,-2.89542 -0.26725,-0.12472 -0.26725,-0.18709 0,-0.31181 0.44048,-0.20555 0.44048,-2.4226 0,-2.62815 -0.26725,-0.12473 -0.26725,-0.18709 0,-0.31182 0.44601,-0.20813 0.44601,-2.68729 0,-2.89542 -0.26725,-0.12472 -0.26725,-0.18709 0,-0.31181 0.19971,-0.0932 0.33409,-0.6756 0.33409,-1.44771 0,-0.77211 -0.13438,-1.35453 -0.33409,-1.44771 -0.26725,-0.12473 -0.26725,-0.18709 0,-0.31182 0.44601,-0.20812 0.44601,-2.68729 0,-2.89542 -0.26725,-0.12472 -0.26725,-0.18708 0,-0.31181 0.19971,-0.0932 0.33409,-0.6756 0.33409,-1.44771 0,-0.77211 -0.13438,-1.35453 -0.33409,-1.44771 -0.26725,-0.12473 -0.26725,-0.18709 0,-0.31182 0.40056,-0.18691 0.46286,-2.78406 0.0668,-2.78406 -0.14701,0 -0.26729,-0.12027 -0.26729,-0.26727 0,-0.147 0.59135,-0.26727 1.31408,-0.26727 0.78994,0 1.37626,-0.13325 1.47,-0.33408 0.12473,-0.26727 0.18709,-0.26727 0.31181,0 0.0932,0.19968 0.67559,0.33408 1.4477,0.33408 0.7721,0 1.35453,-0.1344 1.44772,-0.33408 0.12472,-0.26727 0.18709,-0.26727 0.31181,0 0.20812,0.44599 2.68729,0.44599 2.89541,0 0.12473,-0.26727 0.18709,-0.26727 0.31182,0 0.20555,0.44046 2.4226,0.44046 2.62816,0 0.12472,-0.26727 0.18708,-0.26727 0.31181,0 0.20812,0.44599 2.68729,0.44599 2.89541,0 0.12473,-0.26727 0.18709,-0.26727 0.31181,0 0.20815,0.44599 2.6873,0.44599 2.89544,0 0.12473,-0.26727 0.18709,-0.26727 0.31182,0 0.0932,0.19968 0.67558,0.33408 1.44769,0.33408 0.77211,0 1.35453,-0.1344 1.44772,-0.33408 0.12472,-0.26727 0.18709,-0.26727 0.31181,0 0.20812,0.44599 2.6873,0.44599 2.89542,0 0.12472,-0.26727 0.18708,-0.26727 0.31181,0 0.0932,0.19968 0.67561,0.33408 1.44772,0.33408 0.77211,0 1.35451,-0.1344 1.44769,-0.33408 0.12473,-0.26727 0.18712,-0.26727 0.31184,0 0.20812,0.44599 2.68727,0.44599 2.89542,0 0.12472,-0.26727 0.18708,-0.26727 0.31181,0 0.0857,0.18375 0.31181,0.33408 0.50233,0.33408 0.28099,0 0.3682,5.61848 0.46149,29.73373 0.0632,16.35351 0.0637,29.94416 0,30.20141 -0.13925,0.57133 -0.58621,0.62228 -0.58621,0.0668 0,-0.30291 -0.32665,-0.40091 -1.33633,-0.40091 -1.0097,0 -1.33636,0.098 -1.33636,0.40091 0,0.22049 -0.12028,0.4009 -0.26725,0.4009 -0.14701,0 -0.26729,-0.18041 -0.26729,-0.4009 0,-0.30291 -0.32665,-0.40091 -1.33635,-0.40091 -1.00968,0 -1.33633,0.098 -1.33633,0.40091 0,0.22049 -0.12028,0.4009 -0.26729,0.4009 -0.147,0 -0.26725,-0.18041 -0.26725,-0.4009 0,-0.30291 -0.32668,-0.40091 -1.33636,-0.40091 -1.00968,0 -1.33636,0.098 -1.33636,0.40091 0,0.22049 -0.12025,0.4009 -0.26725,0.4009 -0.14701,0 -0.26728,-0.18041 -0.26728,-0.4009 0,-0.30291 -0.32666,-0.40091 -1.33634,-0.40091 -1.0097,0 -1.33635,0.098 -1.33635,0.40091 0,0.22049 -0.12026,0.4009 -0.26726,0.4009 -0.147,0 -0.26728,-0.18041 -0.26728,-0.4009 0,-0.30291 -0.32666,-0.40091 -1.33633,-0.40091 -1.00971,0 -1.33636,0.098 -1.33636,0.40091 0,0.22049 -0.12028,0.4009 -0.26728,0.4009 -0.14698,0 -0.26726,-0.18041 -0.26726,-0.4009 0,-0.29697 -0.31181,-0.40091 -1.20271,-0.40091 -0.89091,0 -1.20272,0.10394 -1.20272,0.40091 0,0.22049 -0.10739,0.4009 -0.23868,0.4009 -0.13126,0 -0.3079,-0.18041 -0.39251,-0.4009 -0.10549,-0.27475 -0.53501,-0.40091 -1.36499,-0.40091 -0.89836,0 -1.2111,0.10353 -1.2111,0.40091 0,0.22049 -0.12028,0.4009 -0.26728,0.4009 -0.147,0 -0.26726,-0.18041 -0.26726,-0.4009 0,-0.30291 -0.32668,-0.40091 -1.33635,-0.40091 -1.00968,0 -1.33636,0.098 -1.33636,0.40091 0,0.22049 -0.12026,0.4009 -0.26726,0.4009 -0.147,0 -0.26728,-0.18041 -0.26728,-0.4009 0,-0.30291 -0.32665,-0.40091 -1.33633,-0.40091 -1.0097,0 -1.33636,0.098 -1.33636,0.40091 0,0.22049 -0.12028,0.4009 -0.26725,0.4009 -0.14701,0 -0.26729,-0.18041 -0.26729,-0.4009 0,-0.62782 -2.59061,-0.56501 -2.75571,0.0668 -0.0672,0.25725 -0.13618,-0.15368 -0.15325,-0.91317 z"
       id="path1366-0" />
    <path
       style="fill:#cccccc;stroke:#000000;stroke-width:0.801809;stroke-linecap:butt;stroke-linejoin:miter;stroke-miterlimit:4;stroke-dasharray:0, 8.8199;stroke-dashoffset:0;paint-order:normal"
       d="m 189.14962,260.00999 c 0,-0.147 -0.28089,-0.26727 -0.62419,-0.26727 h -0.62419 l -0.17744,-21.04747 c -0.28226,-33.4835 -0.25292,-38.55363 0.2231,-38.55363 0.2205,0 0.40091,-0.18041 0.40091,-0.4009 0,-0.2205 0.12027,-0.40091 0.26727,-0.40091 0.147,0 0.26727,0.18041 0.26727,0.40091 0,0.3029 0.32666,0.4009 1.33634,0.4009 1.00969,0 1.33635,-0.098 1.33635,-0.4009 0,-0.2205 0.12027,-0.40091 0.26727,-0.40091 0.147,0 0.26727,0.18041 0.26727,0.40091 0,0.3029 0.32666,0.4009 1.33635,0.4009 1.00968,0 1.33635,-0.098 1.33635,-0.4009 0,-0.2205 0.12027,-0.40091 0.26727,-0.40091 0.14699,0 0.26727,0.18041 0.26727,0.40091 0,0.29696 0.31181,0.4009 1.20271,0.4009 0.8909,0 1.20271,-0.10394 1.20271,-0.4009 0,-0.2205 0.10741,-0.40091 0.23868,-0.40091 0.13127,0 0.3079,0.18041 0.39251,0.40091 0.10543,0.27474 0.53496,0.4009 1.36494,0.4009 0.89836,0 1.21111,-0.10353 1.21111,-0.4009 0,-0.2205 0.12027,-0.40091 0.26726,-0.40091 0.147,0 0.26728,0.18041 0.26728,0.40091 0,0.3029 0.32666,0.4009 1.33634,0.4009 1.00969,0 1.33635,-0.098 1.33635,-0.4009 0,-0.2205 0.12027,-0.40091 0.26727,-0.40091 0.147,0 0.26727,0.18041 0.26727,0.40091 0,0.3029 0.32666,0.4009 1.33635,0.4009 1.00968,0 1.33634,-0.098 1.33634,-0.4009 0,-0.2205 0.12028,-0.40091 0.26727,-0.40091 0.147,0 0.26727,0.18041 0.26727,0.40091 0,0.3029 0.32667,0.4009 1.33635,0.4009 1.00968,0 1.33635,-0.098 1.33635,-0.4009 0,-0.2205 0.12027,-0.40091 0.26727,-0.40091 0.147,0 0.26727,0.18041 0.26727,0.40091 0,0.3029 0.32666,0.4009 1.33634,0.4009 1.00969,0 1.33635,-0.098 1.33635,-0.4009 0,-0.2205 0.12027,-0.40091 0.26727,-0.40091 0.147,0 0.26727,0.18041 0.26727,0.40091 0,0.3029 0.32666,0.4009 1.33635,0.4009 1.00969,0 1.33635,-0.098 1.33635,-0.4009 0,-0.2205 0.12027,-0.40091 0.26727,-0.40091 0.14699,0 0.26727,0.18041 0.26727,0.40091 0,0.22049 0.18899,0.4009 0.41999,0.4009 0.58544,0 1.42231,0.85588 0.98078,1.00305 -0.44619,0.14874 -0.4441,2.64172 0.002,2.85009 0.26727,0.12472 0.26727,0.18708 0,0.31181 -0.1997,0.0932 -0.3341,0.6756 -0.3341,1.44771 0,0.77211 0.1344,1.35452 0.33409,1.44771 0.26726,0.12472 0.26726,0.18709 0,0.31181 -0.44599,0.20813 -0.44599,2.68729 0,2.89542 0.26726,0.12473 0.26726,0.18709 0,0.31182 -0.44047,0.20555 -0.44047,2.4226 0,2.62815 0.26726,0.12472 0.26726,0.18709 0,0.31181 -0.44599,0.20813 -0.44599,2.68729 0,2.89542 0.26726,0.12473 0.26726,0.18709 0,0.31182 -0.19969,0.0932 -0.33409,0.67559 -0.33409,1.44771 0,0.77211 0.1344,1.35452 0.33409,1.44771 0.26726,0.12472 0.26726,0.18709 0,0.31181 -0.44599,0.20813 -0.44599,2.68729 0,2.89542 0.26726,0.12473 0.26726,0.18709 0,0.31182 -0.19969,0.0932 -0.33409,0.67559 -0.33409,1.44771 0,0.77211 0.1344,1.35452 0.33409,1.44771 0.26726,0.12472 0.26726,0.18708 0,0.31181 -0.44599,0.20813 -0.44599,2.68729 0,2.89542 0.26726,0.12472 0.26726,0.18709 0,0.31181 -0.19969,0.0932 -0.33409,0.6756 -0.33409,1.44771 0,0.77212 0.1344,1.35453 0.33409,1.44771 0.26726,0.12473 0.26726,0.18709 0,0.31182 -0.44599,0.20813 -0.44599,2.68729 0,2.89542 0.26726,0.12472 0.26726,0.18709 0,0.31181 -0.44047,0.20555 -0.44047,2.4226 0,2.62815 0.26726,0.12473 0.26726,0.18709 0,0.31182 -0.19969,0.0932 -0.33409,0.67559 -0.33409,1.44771 0,0.77211 0.1344,1.35452 0.33409,1.44771 0.26726,0.12472 0.26726,0.18709 0,0.31181 -0.19969,0.0932 -0.33409,0.6756 -0.33409,1.44771 0,0.77211 0.1344,1.35453 0.33409,1.44771 0.26726,0.12473 0.26726,0.18709 0,0.31182 -0.19969,0.0932 -0.33409,0.67559 -0.33409,1.44771 0,0.77211 0.1344,1.35452 0.33409,1.44771 0.26726,0.12472 0.26726,0.18709 0,0.31181 -0.44599,0.20813 -0.44599,2.68729 0,2.89542 0.26726,0.12472 0.26726,0.18709 0,0.31181 -0.19969,0.0932 -0.33409,0.6756 -0.33409,1.44771 0,0.77212 0.1344,1.35453 0.33409,1.44772 0.26726,0.12472 0.26726,0.18708 0,0.31181 -0.18375,0.0858 -0.33409,0.44656 -0.33409,0.80181 0,0.39595 -0.15514,0.6459 -0.40091,0.6459 -0.68924,0 -0.46356,0.9954 0.26727,1.17883 0.6429,0.16136 0.95033,0.69206 0.40091,0.69206 -0.147,0 -0.26911,0.27061 -0.27136,0.60135 -0.005,0.77687 -0.51339,1.54551 -0.7067,1.06908 -0.0822,-0.20249 -0.6444,-0.33409 -1.42737,-0.33409 -0.77211,0 -1.35452,0.13441 -1.44771,0.33409 -0.12472,0.26727 -0.18709,0.26727 -0.31181,0 -0.0932,-0.19968 -0.6756,-0.33409 -1.44771,-0.33409 -0.77211,0 -1.35452,0.13441 -1.44771,0.33409 -0.12473,0.26727 -0.18709,0.26727 -0.31181,0 -0.0932,-0.19968 -0.6756,-0.33409 -1.44772,-0.33409 -0.77211,0 -1.35452,0.13441 -1.44771,0.33409 -0.12472,0.26727 -0.18708,0.26727 -0.31181,0 -0.0932,-0.19968 -0.6756,-0.33409 -1.44771,-0.33409 -0.77211,0 -1.35452,0.13441 -1.44771,0.33409 -0.12473,0.26727 -0.18709,0.26727 -0.31181,0 -0.0932,-0.19968 -0.6756,-0.33409 -1.44771,-0.33409 -0.77212,0 -1.35453,0.13441 -1.44771,0.33409 -0.12473,0.26727 -0.18709,0.26727 -0.31182,0 -0.0896,-0.19188 -0.64887,-0.33409 -1.31407,-0.33409 -0.66521,0 -1.22453,0.14221 -1.31408,0.33409 -0.12473,0.26727 -0.18709,0.26727 -0.31181,0 -0.0932,-0.19968 -0.6756,-0.33409 -1.44771,-0.33409 -0.77211,0 -1.35453,0.13441 -1.44771,0.33409 -0.12473,0.26727 -0.18709,0.26727 -0.31182,0 -0.0932,-0.19968 -0.67559,-0.33409 -1.44771,-0.33409 -0.77211,0 -1.35452,0.13441 -1.44771,0.33409 -0.12472,0.26727 -0.18709,0.26727 -0.31181,0 -0.18692,-0.40053 -2.78406,-0.46286 -2.78406,-0.0668 0,0.147 -0.12027,0.26727 -0.26727,0.26727 -0.147,0 -0.26727,-0.12027 -0.26727,-0.26727 z"
       id="path1372-9" />
    <text
       xml:space="preserve"
       style="font-size:28.2222px;line-height:1.25;font-family:'Times New Roman';-inkscape-font-specification:'Times New Roman, ';stroke-width:0.264583"
       x="179.03175"
       y="236.56078"
       id="text1376-1"><tspan
         sodipodi:role="line"
         id="tspan1374-7"
         x="179.03175"
         y="236.56078"
         style="font-size:28.2222px;stroke-width:0.264583">ID</tspan></text>
    <text
       xml:space="preserve"
       style="font-size:28.2222px;line-height:1.25;font-family:'Times New Roman';-inkscape-font-specification:'Times New Roman, ';stroke-width:0.264583"
       x="566.31122"
       y="239.87071"
       id="text1380-7"><tspan
         sodipodi:role="line"
         id="tspan1378-1"
         x="566.31122"
         y="239.87071"
         style="font-size:28.2222px;stroke-width:0.264583">WB</tspan></text>
    <path
       style="fill:#cccccc;stroke:#000000;stroke-width:1.134;stroke-linecap:butt;stroke-linejoin:miter;stroke-miterlimit:4;stroke-dasharray:0, 12.474;stroke-dashoffset:0;paint-order:normal"
       d="m 27.543083,239.84102 c -0.13798,-11.57188 -0.25087,-25.00888 -0.25087,-29.85999 v -8.82021 h 15.308049 15.308053 v 29.86004 29.86001 H 42.851132 27.793943 Z"
       id="path1423-1" />
    <text
       xml:space="preserve"
       style="font-size:28.2222px;line-height:1.25;font-family:'Times New Roman';-inkscape-font-specification:'Times New Roman, ';stroke-width:0.264583"
       x="18.547373"
       y="237.19519"
       id="text1427-5"><tspan
         sodipodi:role="line"
         id="tspan1425-9"
         x="18.547373"
         y="237.19519"
         style="font-size:28.2222px;stroke-width:0.264583">IF</tspan></text>
    <path
       style="fill:none;stroke:#000000;stroke-width:0.79375;stroke-linecap:butt;stroke-linejoin:miter;stroke-miterlimit:4;stroke-dasharray:none;stroke-opacity:1"
       d="m 153.97996,222.62868 h -10.58333 v 10.58334"
       id="path1429-7" />
    <path
       style="fill:none;stroke:#000000;stroke-width:0.79375;stroke-linecap:butt;stroke-linejoin:miter;stroke-opacity:1;stroke-miterlimit:4;stroke-dasharray:1.5875,3.17500001;stroke-dashoffset:0"
       d="M 194.04701,80.282623 248.52539,202.03408"
       id="path1729" />
    <path
       style="fill:none;stroke:#000000;stroke-width:0.79375;stroke-linecap:butt;stroke-linejoin:miter;stroke-opacity:1;stroke-miterlimit:4;stroke-dasharray:none;marker-end:url(#marker2059)"
       d="M -243.41666,21.166666 H 571.49999"
       id="path1735" />
    <path
       style="fill:none;stroke:#000000;stroke-width:0.79375;stroke-linecap:butt;stroke-linejoin:miter;stroke-opacity:1;stroke-miterlimit:4;stroke-dasharray:none"
       d="M 666.74999,317.5 H -550.33333"
       id="path1737" />
    <text
       xml:space="preserve"
       style="font-size:28.2222px;line-height:1.25;font-family:'Times New Roman';-inkscape-font-specification:'Times New Roman, ';stroke-width:0.264583"
       x="-355.48248"
       y="17.779394"
       id="text1741"><tspan
         sodipodi:role="line"
         id="tspan1739"
         x="-355.48248"
         y="17.779394"
         style="font-size:28.2222px;stroke-width:0.264583">Time</tspan></text>
    <text
       xml:space="preserve"
       style="font-size:28.2222px;line-height:1.25;font-family:'Times New Roman';-inkscape-font-specification:'Times New Roman, ';stroke-width:0.264583"
       x="-522.05804"
       y="104.06618"
       id="text1745"><tspan
         sodipodi:role="line"
         id="tspan1743"
         x="-522.05804"
         y="104.06618"
         style="font-size:28.2222px;stroke-width:0.264583">add <tspan
   style="fill:#00ff00"
   id="tspan1751">x1</tspan>, x2, x3</tspan></text>
    <text
       xml:space="preserve"
       style="font-size:28.2222px;line-height:1.25;font-family:'Times New Roman';-inkscape-font-specification:'Times New Roman, ';stroke-width:0.264583"
       x="-519.83765"
       y="242.817"
       id="text1749"><tspan
         sodipodi:role="line"
         id="tspan1747"
         x="-519.83765"
         y="242.817"
         style="font-size:28.2222px;stroke-width:0.264583">sub x4, <tspan
   style="fill:#00ff00"
   id="tspan1753">x1</tspan> ,x5</tspan></text>
    <path
       style="fill:none;stroke:#000000;stroke-width:1.05833334;stroke-linecap:butt;stroke-linejoin:miter;stroke-opacity:1;stroke-miterlimit:4;stroke-dasharray:none;marker-end:url(#Arrow1Lend)"
       d="M -550.33333,10.583333 V 275.16666"
       id="path1761" />
  </g>
</svg>
